<?xml version="1.0" encoding="UTF-8" standalone="no"?>
<!DOCTYPE svg PUBLIC "-//W3C//DTD SVG 1.1//EN" "http://www.w3.org/Graphics/SVG/1.1/DTD/svg11.dtd">
<!-- Generated by Microsoft Visio, SVG Export azure-multimodal-architecture.svg azure-rag-architecture -->
<svg xmlns="http://www.w3.org/2000/svg" xmlns:xlink="http://www.w3.org/1999/xlink" xmlns:ev="http://www.w3.org/2001/xml-events"
		xmlns:v="http://schemas.microsoft.com/visio/2003/SVGExtensions/" width="36.5312in" height="22.5312in"
		viewBox="0 0 2630.25 1622.25" xml:space="preserve" color-interpolation-filters="sRGB" class="st45">
	<v:documentProperties v:langID="3081" v:viewMarkup="false"/>

	<style type="text/css">
	<![CDATA[
		.st1 {fill:none;stroke:none;stroke-linecap:butt;stroke-width:0.75}
		.st2 {fill:#000000;font-family:Calibri;font-size:3em}
		.st3 {fill:url(#grad0-12);stroke:none;stroke-linecap:butt;stroke-width:0.752564}
		.st4 {fill:#37c2b1;stroke:none;stroke-linecap:butt;stroke-width:0.752564}
		.st5 {fill:#ffffff;stroke:none;stroke-linecap:butt;stroke-width:0.752564}
		.st6 {fill:#258277;stroke:none;stroke-linecap:butt;stroke-width:0.752564}
		.st7 {fill:url(#grad7-28);stroke:none;stroke-linecap:butt;stroke-width:0.75}
		.st8 {fill:#ffffff;fill-opacity:0.6;stroke:none;stroke-linecap:butt;stroke-width:0.75}
		.st9 {fill:#f2f2f2;fill-opacity:0.55;stroke:none;stroke-linecap:butt;stroke-width:0.75}
		.st10 {fill:url(#grad0-38);stroke:none;stroke-linecap:butt;stroke-width:0.75}
		.st11 {fill:url(#grad0-46);stroke:none;stroke-linecap:butt;stroke-width:0.75}
		.st12 {fill:#f2f2f2;fill-opacity:0.7;stroke:none;stroke-linecap:butt;stroke-width:0.75}
		.st13 {fill:url(#grad0-67);stroke:none;stroke-linecap:butt;stroke-width:0.75}
		.st14 {fill:#ffffff;fill-opacity:0.8;stroke:none;stroke-linecap:butt;stroke-width:0.75}
		.st15 {fill:url(#grad0-73);stroke:none;stroke-linecap:butt;stroke-width:0.75}
		.st16 {fill:#156082;stroke:none;stroke-linecap:butt;stroke-width:0.75}
		.st17 {fill:#000000;font-family:Calibri;font-size:3.43751em}
		.st18 {fill:none}
		.st19 {stroke:#156082;stroke-linecap:butt;stroke-width:5.15625}
		.st20 {fill:#156082;stroke:#042433;stroke-linecap:butt;stroke-width:5.15625}
		.st21 {fill:#ffffff;font-family:Calibri;font-size:3.43751em}
		.st22 {fill:#000000;font-family:Calibri;font-size:2.87501em}
		.st23 {fill:#000000;stroke:none;stroke-linecap:butt;stroke-width:0.75}
		.st24 {fill:#50e6ff;stroke:none;stroke-linecap:butt;stroke-width:0.752564}
		.st25 {fill:url(#grad6-140);stroke:none;stroke-linecap:butt;stroke-width:0.752564}
		.st26 {fill:#32bedd;stroke:none;stroke-linecap:butt;stroke-width:0.75}
		.st27 {fill:#ffffff;stroke:none;stroke-linecap:butt;stroke-width:0.75}
		.st28 {fill:#50e6ff;stroke:none;stroke-linecap:butt;stroke-width:0.75}
		.st29 {fill:url(#grad0-163);stroke:none;stroke-linecap:butt;stroke-width:0.75}
		.st30 {fill:#999999;stroke:none;stroke-linecap:butt;stroke-width:0.75}
		.st31 {fill:#999999;fill-opacity:0.5;stroke:none;stroke-linecap:butt;stroke-width:0.75}
		.st32 {fill:#949494;stroke:none;stroke-linecap:butt;stroke-width:0.75}
		.st33 {fill:#1490df;stroke:none;stroke-linecap:butt;stroke-width:0.75}
		.st34 {fill:url(#grad0-220);stroke:none;stroke-linecap:butt;stroke-width:0.75}
		.st35 {fill:#76bc2d;stroke:none;stroke-linecap:butt;stroke-width:0.75}
		.st36 {fill:#0078d4;stroke:none;stroke-linecap:butt;stroke-width:0.75}
		.st37 {fill:url(#grad0-246);stroke:none;stroke-linecap:butt;stroke-width:0.75}
		.st38 {fill:#ffffff;fill-opacity:0.7;stroke:none;stroke-linecap:butt;stroke-width:0.75}
		.st39 {fill:#ffffff;fill-opacity:0.3;stroke:none;stroke-linecap:butt;stroke-width:0.75}
		.st40 {fill:#ffffff;fill-opacity:0.4;stroke:none;stroke-linecap:butt;stroke-width:0.75}
		.st41 {fill:#ffffff;fill-opacity:0.5;stroke:none;stroke-linecap:butt;stroke-width:0.75}
		.st42 {fill:url(#grad0-261);stroke:none;stroke-linecap:butt;stroke-width:0.75}
		.st43 {fill:#f0f0f0;stroke:none;stroke-linecap:butt;stroke-width:0.75}
		.st44 {fill:#92d050;stroke:#042433;stroke-linecap:butt;stroke-width:5.15625}
		.st45 {fill:none;fill-rule:evenodd;font-size:12px;overflow:visible;stroke-linecap:square;stroke-miterlimit:3}
	]]>
	</style>

	<defs id="Patterns_And_Gradients">
		<linearGradient id="grad0-12" x1="0" y1="0" x2="1" y2="0" gradientTransform="rotate(-90 0.5 0.5)">
			<stop offset="0" stop-color="#b3b3b3" stop-opacity="1"/>
			<stop offset="0.26" stop-color="#c1c1c1" stop-opacity="1"/>
			<stop offset="1" stop-color="#e6e6e6" stop-opacity="1"/>
		</linearGradient>
		<radialGradient id="grad7-28" cx="0" cy="0" r="1.4">
			<stop offset="0" stop-color="#5ea0ef" stop-opacity="1"/>
			<stop offset="0.18" stop-color="#5ea0ef" stop-opacity="1"/>
			<stop offset="1" stop-color="#0078d4" stop-opacity="1"/>
		</radialGradient>
		<linearGradient id="grad0-38" x1="0" y1="0" x2="1" y2="0" gradientTransform="rotate(-90.44575692575 0.5 0.5)">
			<stop offset="0" stop-color="#cccccc" stop-opacity="1"/>
			<stop offset="1" stop-color="#fcfcfc" stop-opacity="1"/>
		</linearGradient>
		<linearGradient id="grad0-46" x1="0" y1="0" x2="1" y2="0" gradientTransform="rotate(-90 0.5 0.5)">
			<stop offset="0" stop-color="#cccccc" stop-opacity="1"/>
			<stop offset="1" stop-color="#fcfcfc" stop-opacity="1"/>
		</linearGradient>
		<linearGradient id="grad0-67" x1="0" y1="0" x2="1" y2="0" gradientTransform="rotate(90 0.5 0.5)">
			<stop offset="0" stop-color="#32d4f5" stop-opacity="1"/>
			<stop offset="0.22" stop-color="#32d4f5" stop-opacity="1"/>
			<stop offset="1" stop-color="#198ab3" stop-opacity="1"/>
		</linearGradient>
		<linearGradient id="grad0-73" x1="0" y1="0" x2="1" y2="0" gradientTransform="rotate(85.405801392026 0.5 0.5)">
			<stop offset="0" stop-color="#32d4f5" stop-opacity="1"/>
			<stop offset="0.22" stop-color="#32d4f5" stop-opacity="1"/>
			<stop offset="1" stop-color="#198ab3" stop-opacity="1"/>
		</linearGradient>
		<radialGradient id="grad6-140" cx="1" cy="0" r="1.4">
			<stop offset="0" stop-color="#5ea0ef" stop-opacity="1"/>
			<stop offset="0.185" stop-color="#5ea0ef" stop-opacity="1"/>
			<stop offset="1" stop-color="#0078d4" stop-opacity="1"/>
		</radialGradient>
		<linearGradient id="grad0-163" x1="0" y1="0" x2="1" y2="0" gradientTransform="rotate(90 0.5 0.5)">
			<stop offset="0" stop-color="#c69aeb" stop-opacity="1"/>
			<stop offset="1" stop-color="#6f4bb2" stop-opacity="1"/>
		</linearGradient>
		<linearGradient id="grad0-220" x1="0" y1="0" x2="1" y2="0" gradientTransform="rotate(-90 0.5 0.5)">
			<stop offset="0" stop-color="#fea11b" stop-opacity="1"/>
			<stop offset="0.285" stop-color="#fea51a" stop-opacity="1"/>
			<stop offset="0.545" stop-color="#feb018" stop-opacity="1"/>
			<stop offset="0.8" stop-color="#ffc314" stop-opacity="1"/>
			<stop offset="1" stop-color="#ffd70f" stop-opacity="1"/>
		</linearGradient>
		<linearGradient id="grad0-246" x1="0" y1="0" x2="1" y2="0" gradientTransform="rotate(-90 0.5 0.5)">
			<stop offset="0" stop-color="#0078d4" stop-opacity="1"/>
			<stop offset="0.82" stop-color="#5ea0ef" stop-opacity="1"/>
		</linearGradient>
		<linearGradient id="grad0-261" x1="0" y1="0" x2="1" y2="0" gradientTransform="rotate(90 0.5 0.5)">
			<stop offset="0" stop-color="#ffffff" stop-opacity="1"/>
			<stop offset="1" stop-color="#ffffff" stop-opacity="1"/>
		</linearGradient>
	</defs>
	<g v:mID="0" v:index="1" v:groupContext="foregroundPage">
		<title>azure-rag-architecture</title>
		<v:pageProperties v:drawingScale="1" v:pageScale="1" v:drawingUnits="19" v:shadowOffsetX="9" v:shadowOffsetY="-9"/>
		<v:layer v:name="Connector" v:index="0"/>
		<g id="group1-1" transform="translate(25.602,-3.375)" v:mID="1" v:groupContext="group">
			<title>Sheet.1</title>
			<g id="shape25-2" v:mID="25" v:groupContext="shape" transform="translate(-1.48361E-11,-1263.82)">
				<title>Sheet.25</title>
				<desc>Documents with complex</desc>
				<v:textBlock v:margins="rect(0,0,0,0)"/>
				<v:textRect cx="414" cy="1600.65" width="828" height="43.2"/>
				<rect x="0" y="1579.05" width="828" height="43.2" class="st1"/>
				<text x="0" y="1611.45" class="st2" v:langID="3081"><v:paragraph/><v:tabList/>Documents with complex  </text>			</g>
			<g id="shape26-5" v:mID="26" v:groupContext="shape" transform="translate(1.52198E-11,-1220.32)">
				<title>Sheet.26</title>
				<desc>tables and images</desc>
				<v:textBlock v:margins="rect(0,0,0,0)"/>
				<v:textRect cx="306" cy="1600.65" width="612" height="43.2"/>
				<rect x="0" y="1579.05" width="612" height="43.2" class="st1"/>
				<text x="0" y="1611.45" class="st2" v:langID="3081"><v:paragraph/><v:tabList/>tables and images</text>			</g>
			<g id="group27-8" transform="translate(786.689,-1196.76)" v:mID="27" v:groupContext="group">
				<title>Sheet.27</title>
				<g id="shape28-9" v:mID="28" v:groupContext="shape">
					<title>Sheet.28</title>
					<path d="M0 1560.69 L103.42 1560.69 L103.42 1618.76 C103.42 1620.69 101.86 1622.25 99.95 1622.25 L3.47 1622.25
								 C1.55 1622.25 0 1620.69 0 1618.76 L0 1560.69 Z" class="st3"/>
				</g>
				<g id="shape29-13" v:mID="29" v:groupContext="shape" transform="translate(3.27738E-13,-61.5562)">
					<title>Sheet.29</title>
					<path d="M3.47 1600.08 L99.95 1600.08 C101.86 1600.08 103.42 1601.64 103.42 1603.57 L103.42 1622.25 L0 1622.25
								 L0 1603.51 C0.03 1601.6 1.58 1600.08 3.47 1600.08 Z" class="st4"/>
				</g>
				<g id="shape30-15" v:mID="30" v:groupContext="shape" transform="translate(12.4702,-42.9362)">
					<title>Sheet.30</title>
					<path d="M1.58 1610.37 L76.83 1610.37 C77.72 1610.4 78.42 1611.13 78.42 1612.02 L78.42 1620.6 C78.42 1621.49
								 77.72 1622.22 76.83 1622.25 L1.58 1622.25 C0.7 1622.22 0 1621.49 0 1620.6 L0 1612.02 C0 1611.13
								 0.7 1610.4 1.58 1610.37 Z" class="st5"/>
				</g>
				<g id="shape31-17" v:mID="31" v:groupContext="shape" transform="translate(12.3635,-25.7862)">
					<title>Sheet.31</title>
					<path d="M1.75 1610.31 L77 1610.31 C77.88 1610.34 78.58 1611.07 78.58 1611.96 L78.58 1620.6 C78.58 1621.49 77.88
								 1622.22 77 1622.25 L1.75 1622.25 C0.87 1622.22 0.17 1621.49 0.17 1620.6 L0.17 1612.27 C0 1611.37
								 0.59 1610.5 1.48 1610.33 C1.57 1610.32 1.66 1610.31 1.75 1610.31 Z" class="st4"/>
				</g>
				<g id="shape32-19" v:mID="32" v:groupContext="shape" transform="translate(12.531,-8.51342)">
					<title>Sheet.32</title>
					<path d="M1.58 1610.31 L76.83 1610.31 C77.72 1610.34 78.42 1611.07 78.42 1611.96 L78.42 1620.6 C78.42 1621.49
								 77.72 1622.22 76.83 1622.25 L1.58 1622.25 C0.7 1622.22 0 1621.49 0 1620.6 L0 1611.96 C0 1611.07
								 0.7 1610.34 1.58 1610.31 Z" class="st6"/>
				</g>
			</g>
			<g id="shape33-21" v:mID="33" v:groupContext="shape" transform="translate(775.398,-1148.62)">
				<title>Sheet.33</title>
				<desc>Storage Account</desc>
				<v:textBlock v:margins="rect(0,0,0,0)"/>
				<v:textRect cx="270" cy="1600.65" width="540" height="43.2"/>
				<rect x="0" y="1579.05" width="540" height="43.2" class="st1"/>
				<text x="-0" y="1611.45" class="st2" v:langID="3081"><v:paragraph/><v:tabList/>Storage Account</text>			</g>
			<g id="group41-24" transform="translate(1874.34,-1212.3)" v:mID="41" v:groupContext="group">
				<title>Sheet.41</title>
				<g id="shape42-25" v:mID="42" v:groupContext="shape">
					<title>Sheet.42</title>
					<path d="M75.88 1607.5 C56.86 1622.25 29.49 1618.79 14.74 1599.76 C0 1580.74 3.46 1553.37 22.48 1538.62 L22.94
								 1538.32 C42.22 1523.92 69.52 1527.89 83.91 1547.17 C98.06 1566.12 94.5 1592.91 75.88 1607.5 Z"
							class="st7"/>
				</g>
				<g id="shape43-29" v:mID="43" v:groupContext="shape" transform="translate(30.4275,-58.2578)">
					<title>Sheet.43</title>
					<path d="M6.92 1622.25 C19.24 1610.53 35.58 1603.97 52.58 1603.9 C50.35 1601.14 47.78 1598.66 44.95 1596.52 C36.68
								 1597.03 28.55 1598.94 20.91 1602.16 C13.05 1605.54 5.94 1610.45 0 1616.61 C2.86 1617.7 5.28 1619.67
								 6.92 1622.25 Z" class="st8"/>
				</g>
				<g id="shape44-31" v:mID="44" v:groupContext="shape" transform="translate(11.5125,-19.2562)">
					<title>Sheet.44</title>
					<path d="M4.26 1600.78 C2.5 1605.14 1.07 1609.63 0 1614.2 C0.95 1615.85 2.01 1617.42 3.18 1618.92 C4.1 1620.1
								 4.97 1621.17 6 1622.25 C7.24 1616.15 9.09 1610.19 11.53 1604.47 C8.8 1603.98 6.27 1602.69 4.26 1600.78
								 Z" class="st8"/>
				</g>
				<g id="shape45-33" v:mID="45" v:groupContext="shape" transform="translate(11.6175,-59.4368)">
					<title>Sheet.45</title>
					<path d="M9.17 1617.69 C7.37 1612.84 6.18 1607.77 5.64 1602.62 C3.49 1604.88 1.6 1607.37 0 1610.05 C0.58 1614.2
								 1.56 1618.29 2.93 1622.25 C4.53 1620.16 6.7 1618.58 9.17 1617.69 Z" class="st9"/>
				</g>
				<g id="shape46-35" v:mID="46" v:groupContext="shape" transform="translate(11.5125,-36.8355)">
					<title>Sheet.46</title>
					<path d="M27.98 1608.26 C27.98 1615.99 21.72 1622.25 14 1622.25 C6.27 1622.25 0 1615.99 0 1608.26 C0 1600.53
								 6.27 1594.27 14 1594.27 C21.72 1594.27 27.98 1600.53 27.98 1608.26 Z" class="st10"/>
				</g>
				<g id="shape47-39" v:mID="47" v:groupContext="shape" transform="translate(28.0725,-24.0742)">
					<title>Sheet.47</title>
					<path d="M17.84 1621.07 C17.84 1618.62 18.83 1616.27 20.6 1614.56 C15.88 1611.97 11.51 1608.77 7.64 1605.03 C5.6
								 1607.22 2.93 1608.71 0 1609.28 C2.31 1611.65 4.79 1613.84 7.43 1615.84 C10.71 1618.32 14.23 1620.47
								 17.93 1622.25 C17.87 1621.86 17.84 1621.47 17.84 1621.07 Z" class="st9"/>
				</g>
				<g id="shape48-41" v:mID="48" v:groupContext="shape" transform="translate(61.4325,-17.3415)">
					<title>Sheet.48</title>
					<path d="M16.76 1615.42 C12 1615.42 7.25 1614.87 2.62 1613.77 C2.64 1613.96 2.64 1614.15 2.62 1614.34 C2.62 1616.72
								 1.68 1619.01 0 1620.69 C5.77 1621.84 11.65 1622.25 17.53 1621.92 C19.81 1619.86 21.85 1617.56 23.63
								 1615.06 C21.35 1615.31 19.06 1615.43 16.76 1615.42 Z" class="st9"/>
				</g>
				<g id="shape49-43" v:mID="49" v:groupContext="shape" transform="translate(45.855,-16.1303)">
					<title>Sheet.49</title>
					<path d="M18.24 1613.13 C18.24 1618.17 14.16 1622.25 9.12 1622.25 C4.08 1622.25 0 1618.17 0 1613.13 C0 1608.09
								 4.08 1604 9.12 1604 C14.16 1604 18.24 1608.09 18.24 1613.13 Z" class="st11"/>
				</g>
				<g id="shape50-47" v:mID="50" v:groupContext="shape" transform="translate(30.63,-49.545)">
					<title>Sheet.50</title>
					<path d="M35.57 1622.25 C36.02 1620.25 37.12 1618.44 38.69 1617.12 C30.26 1610.99 22.58 1603.87 15.84 1595.91
								 C11.91 1591.29 8.47 1586.28 5.59 1580.94 C3.67 1581.52 1.81 1582.24 0 1583.09 C3.09 1588.9 6.78
								 1594.36 11.02 1599.39 C18.22 1608 26.47 1615.68 35.57 1622.25 Z" class="st12"/>
				</g>
				<g id="shape51-49" v:mID="51" v:groupContext="shape" transform="translate(66.045,-38.1165)">
					<title>Sheet.51</title>
					<path d="M19.37 1612.56 C19.37 1617.91 15.04 1622.25 9.69 1622.25 C4.34 1622.25 0 1617.91 0 1612.56 C0 1607.21
								 4.34 1602.88 9.69 1602.88 C15.04 1602.88 19.37 1607.21 19.37 1612.56 Z" class="st11"/>
				</g>
				<g id="shape52-52" v:mID="52" v:groupContext="shape" transform="translate(81.78,-35.7075)">
					<title>Sheet.52</title>
					<path d="M10.2 1616.66 L8.41 1615.79 L6.87 1614.97 L6.56 1614.97 L5.23 1613.9 L4.87 1613.9 L3.28 1612.87 C2.73
								 1614.76 1.58 1616.41 0 1617.59 C0.61 1618 1.28 1618.35 1.95 1618.71 L2.35 1618.97 L4.15 1619.94
								 L8.56 1622.25 C9.18 1620.39 9.67 1618.49 10.04 1616.56 L10.2 1616.66 Z" class="st9"/>
				</g>
				<g id="shape53-54" v:mID="53" v:groupContext="shape" transform="translate(11.5125,-36.8355)">
					<title>Sheet.53</title>
					<path d="M27.98 1608.26 C27.98 1615.99 21.72 1622.25 14 1622.25 C6.27 1622.25 0 1615.99 0 1608.26 C0 1600.53
								 6.27 1594.27 14 1594.27 C21.72 1594.27 27.98 1600.53 27.98 1608.26 Z" class="st10"/>
				</g>
				<g id="shape54-57" v:mID="54" v:groupContext="shape" transform="translate(45.855,-16.1303)">
					<title>Sheet.54</title>
					<path d="M18.24 1613.13 C18.24 1618.17 14.16 1622.25 9.12 1622.25 C4.08 1622.25 0 1618.17 0 1613.13 C0 1608.09
								 4.08 1604 9.12 1604 C14.16 1604 18.24 1608.09 18.24 1613.13 Z" class="st11"/>
				</g>
			</g>
			<g id="shape55-60" v:mID="55" v:groupContext="shape" transform="translate(1854.12,-1143.82)">
				<title>Sheet.55</title>
				<desc>Client Application</desc>
				<v:textBlock v:margins="rect(0,0,0,0)"/>
				<v:textRect cx="324" cy="1600.65" width="648.01" height="43.2"/>
				<rect x="0" y="1579.05" width="648" height="43.2" class="st1"/>
				<text x="0" y="1611.45" class="st2" v:langID="3081"><v:paragraph/><v:tabList/>Client Application</text>			</g>
			<g id="group56-63" transform="translate(2287.4,-1226.02)" v:mID="56" v:groupContext="group">
				<title>Sheet.56</title>
				<g id="shape57-64" v:mID="57" v:groupContext="shape">
					<title>Sheet.57</title>
					<path d="M76.76 1622.25 C80.86 1622.25 84.19 1618.92 84.19 1614.82 C84.24 1614.53 84.24 1614.24 84.19 1613.95
								 C81.21 1590.53 67.94 1571.46 42.32 1571.46 C16.69 1571.46 3.06 1587.6 0.44 1614 C0 1618.11 2.97
								 1621.8 7.08 1622.24 C7.11 1622.24 7.13 1622.25 7.16 1622.25 L76.76 1622.25 Z" class="st13"/>
				</g>
				<g id="shape58-68" v:mID="58" v:groupContext="shape" transform="translate(29.6052,-16.0928)">
					<title>Sheet.58</title>
					<path d="M12.71 1593.09 C8.2 1593.09 3.79 1591.79 0 1589.35 L12.71 1622.25 L25.21 1589.55 C21.47 1591.9 17.13
								 1593.12 12.71 1593.09 Z" class="st14"/>
				</g>
				<g id="shape59-70" v:mID="59" v:groupContext="shape" transform="translate(18.894,-45.3051)">
					<title>Sheet.59</title>
					<path d="M46.94 1598.78 C46.94 1611.74 36.44 1622.25 23.47 1622.25 C10.51 1622.25 0 1611.74 0 1598.78 C0 1585.81
								 10.51 1575.31 23.47 1575.31 C36.44 1575.31 46.94 1585.81 46.94 1598.78 Z" class="st15"/>
				</g>
			</g>
			<g id="shape60-74" v:mID="60" v:groupContext="shape" transform="translate(2288.57,-1158.97)">
				<title>Sheet.60</title>
				<desc>Users</desc>
				<v:textBlock v:margins="rect(0,0,0,0)"/>
				<v:textRect cx="90" cy="1600.65" width="180" height="43.2"/>
				<rect x="0" y="1579.05" width="180" height="43.2" class="st1"/>
				<text x="-0" y="1611.45" class="st2" v:langID="3081"><v:paragraph/><v:tabList/>Users</text>			</g>
			<g id="shape62-77" v:mID="62" v:groupContext="shape" transform="translate(1296.93,-1218)">
				<title>Sheet.62</title>
				<path d="M17.19 1610.22 L27.5 1610.22 L27.5 1613.66 L17.19 1613.66 L17.19 1610.22 ZM30.94 1610.22 L41.25 1610.22
							 L41.25 1613.66 L30.94 1613.66 L30.94 1610.22 ZM44.68 1610.22 L55 1610.22 L55 1613.66 L44.68 1613.66
							 L44.68 1610.22 ZM58.44 1610.22 L68.75 1610.22 L68.75 1613.66 L58.44 1613.66 L58.44 1610.22 ZM72.19 1610.22
							 L82.5 1610.22 L82.5 1613.66 L72.19 1613.66 L72.19 1610.22 ZM85.94 1610.22 L96.25 1610.22 L96.25 1613.66
							 L85.94 1613.66 L85.94 1610.22 ZM99.69 1610.22 L110 1610.22 L110 1613.66 L99.69 1613.66 L99.69 1610.22
							 ZM113.44 1610.22 L123.75 1610.22 L123.75 1613.66 L113.44 1613.66 L113.44 1610.22 ZM127.19 1610.22 L137.5
							 1610.22 L137.5 1613.66 L127.19 1613.66 L127.19 1610.22 ZM140.94 1610.22 L151.25 1610.22 L151.25 1613.66
							 L140.94 1613.66 L140.94 1610.22 ZM154.69 1610.22 L165 1610.22 L165 1613.66 L154.69 1613.66 L154.69 1610.22
							 ZM168.44 1610.22 L178.75 1610.22 L178.75 1613.66 L168.44 1613.66 L168.44 1610.22 ZM182.19 1610.22 L192.5
							 1610.22 L192.5 1613.66 L182.19 1613.66 L182.19 1610.22 ZM195.94 1610.22 L206.25 1610.22 L206.25 1613.66
							 L195.94 1613.66 L195.94 1610.22 ZM209.69 1610.22 L220 1610.22 L220 1613.66 L209.69 1613.66 L209.69 1610.22
							 ZM223.44 1610.22 L233.75 1610.22 L233.75 1613.66 L223.44 1613.66 L223.44 1610.22 ZM237.19 1610.22 L247.5
							 1610.22 L247.5 1613.66 L237.19 1613.66 L237.19 1610.22 ZM250.94 1610.22 L261.25 1610.22 L261.25 1613.66
							 L250.94 1613.66 L250.94 1610.22 ZM264.69 1610.22 L270.95 1610.22 L270.95 1613.66 L264.69 1613.66 L264.69
							 1610.22 ZM20.62 1622.25 L0 1611.94 L20.62 1601.63 L20.62 1622.25 Z" class="st16"/>
			</g>
			<g id="shape69-79" v:mID="69" v:groupContext="shape" transform="translate(1161.84,1985.25) rotate(180)">
				<title>Sheet.69</title>
				<path d="M0 1610.22 L10.31 1610.22 L10.31 1613.66 L0 1613.66 L0 1610.22 ZM13.75 1610.22 L24.06 1610.22 L24.06 1613.66
							 L13.75 1613.66 L13.75 1610.22 ZM27.5 1610.22 L37.82 1610.22 L37.82 1613.66 L27.5 1613.66 L27.5 1610.22
							 ZM41.25 1610.22 L51.56 1610.22 L51.56 1613.66 L41.25 1613.66 L41.25 1610.22 ZM55 1610.22 L65.31 1610.22
							 L65.31 1613.66 L55 1613.66 L55 1610.22 ZM68.75 1610.22 L79.06 1610.22 L79.06 1613.66 L68.75 1613.66
							 L68.75 1610.22 ZM82.5 1610.22 L92.81 1610.22 L92.81 1613.66 L82.5 1613.66 L82.5 1610.22 ZM96.25 1610.22
							 L106.56 1610.22 L106.56 1613.66 L96.25 1613.66 L96.25 1610.22 ZM110 1610.22 L120.31 1610.22 L120.31
							 1613.66 L110 1613.66 L110 1610.22 ZM123.75 1610.22 L134.06 1610.22 L134.06 1613.66 L123.75 1613.66 L123.75
							 1610.22 ZM137.5 1610.22 L147.81 1610.22 L147.81 1613.66 L137.5 1613.66 L137.5 1610.22 ZM151.25 1610.22
							 L161.56 1610.22 L161.56 1613.66 L151.25 1613.66 L151.25 1610.22 ZM165 1610.22 L175.31 1610.22 L175.31
							 1613.66 L165 1613.66 L165 1610.22 ZM178.75 1610.22 L189.06 1610.22 L189.06 1613.66 L178.75 1613.66 L178.75
							 1610.22 ZM192.5 1610.22 L202.81 1610.22 L202.81 1613.66 L192.5 1613.66 L192.5 1610.22 ZM206.25 1610.22
							 L216.56 1610.22 L216.56 1613.66 L206.25 1613.66 L206.25 1610.22 ZM220 1610.22 L230.31 1610.22 L230.31
							 1613.66 L220 1613.66 L220 1610.22 ZM233.75 1610.22 L244.06 1610.22 L244.06 1613.66 L233.75 1613.66 L233.75
							 1610.22 ZM247.5 1610.22 L252.25 1610.22 L252.25 1613.66 L247.5 1613.66 L247.5 1610.22 ZM248.82 1601.63
							 L269.44 1611.94 L248.82 1622.25 L248.82 1601.63 Z" class="st16"/>
			</g>
			<g id="shape77-81" v:mID="77" v:groupContext="shape" transform="translate(196.483,-326.25)">
				<title>Sheet.77</title>
				<desc>Processing</desc>
				<v:textBlock v:margins="rect(0,0,0,0)"/>
				<v:textRect cx="268.125" cy="1597.5" width="536.25" height="49.5"/>
				<rect x="0" y="1572.75" width="536.25" height="49.5" class="st1"/>
				<text x="0" y="1609.88" class="st17" v:langID="3081"><v:paragraph/><v:tabList/>Processing</text>			</g>
			<g id="shape78-84" v:mID="78" v:groupContext="shape" transform="translate(515.523,6.59384E-12)">
				<title>Sheet.78</title>
				<path d="M117.75 1622.25 C85.24 1622.25 58.88 1617.85 58.88 1612.44 L58.88 1278.43 C58.88 1273.02 32.52 1268.62 0
							 1268.62 C32.52 1268.62 58.88 1264.23 58.88 1258.81 L58.88 924.81 C58.88 919.39 85.24 915 117.75 915
							 L117.75 1622.25 Z" class="st18"/>
				<path d="M117.75 1622.25 C85.24 1622.25 58.88 1617.85 58.88 1612.44 L58.88 1278.43 C58.88 1273.02 32.52 1268.62 0
							 1268.62 C32.52 1268.62 58.88 1264.23 58.88 1258.81 L58.88 924.81 C58.88 919.39 85.24 915 117.75 915"
						class="st19"/>
			</g>
			<g id="shape79-87" v:mID="79" v:groupContext="shape" transform="translate(632.523,-624)">
				<title>Sheet.79</title>
				<path d="M0 1593.75 C0 1578.01 12.93 1565.25 28.87 1565.25 C44.82 1565.25 57.75 1578.01 57.75 1593.75 C57.75 1609.49
							 44.82 1622.25 28.87 1622.25 C12.93 1622.25 0 1609.49 0 1593.75 Z" class="st20"/>
			</g>
			<g id="shape80-89" v:mID="80" v:groupContext="shape" transform="translate(649.848,-627)">
				<title>Sheet.80</title>
				<desc>1</desc>
				<v:textBlock v:margins="rect(0,0,0,0)"/>
				<v:textRect cx="20.625" cy="1597.5" width="41.26" height="49.5"/>
				<rect x="0" y="1572.75" width="41.25" height="49.5" class="st1"/>
				<text x="0" y="1609.88" class="st21" v:langID="3081"><v:paragraph/><v:tabList/>1</text>			</g>
			<g id="shape81-92" v:mID="81" v:groupContext="shape" transform="translate(739.398,-626.625)">
				<title>Sheet.81</title>
				<desc>Documents are sent to Storage Account.</desc>
				<v:textBlock v:margins="rect(0,0,0,0)"/>
				<v:textRect cx="569.25" cy="1601.55" width="1138.51" height="41.4"/>
				<rect x="0" y="1580.85" width="1138.5" height="41.4" class="st1"/>
				<text x="-0" y="1611.9" class="st22" v:langID="3081"><v:paragraph/><v:tabList/>Documents are sent to Storage Account.  </text>			</g>
			<g id="shape119-95" v:mID="119" v:groupContext="shape" transform="translate(1805.31,-187.5)">
				<title>Sheet.119</title>
				<desc>D</desc>
				<v:textBlock v:margins="rect(0,0,0,0)"/>
				<v:textRect cx="20.625" cy="1597.5" width="41.26" height="49.5"/>
				<rect x="0" y="1572.75" width="41.25" height="49.5" class="st1"/>
				<text x="0" y="1609.88" class="st21" v:langID="3081"><v:paragraph/><v:tabList/>D</text>			</g>
			<g id="shape123-98" v:mID="123" v:groupContext="shape" transform="translate(2220.28,-1190.25)">
				<title>Sheet.123</title>
				<desc>D</desc>
				<v:textBlock v:margins="rect(0,0,0,0)"/>
				<v:textRect cx="20.625" cy="1597.5" width="41.26" height="49.5"/>
				<rect x="0" y="1572.75" width="41.25" height="49.5" class="st1"/>
				<text x="0" y="1609.88" class="st21" v:langID="3081"><v:paragraph/><v:tabList/>D</text>			</g>
			<g id="group124-101" transform="translate(1574.9,-1187.63)" v:mID="124" v:groupContext="group">
				<title>clip17</title>
				<g id="shape125-102" v:mID="125" v:groupContext="shape">
					<title>Sheet.125</title>
					<path d="M0 1501.5 L120.75 1501.5 L120.75 1622.25 L0 1622.25 L0 1501.5 Z" class="st23"/>
				</g>
			</g>
			<g id="shape126-104" v:mID="126" v:groupContext="shape" transform="translate(1512.25,-1147.57)">
				<title>Sheet.126</title>
				<desc>Azure OpenAI</desc>
				<v:textBlock v:margins="rect(0,0,0,0)"/>
				<v:textRect cx="216" cy="1600.65" width="432" height="43.2"/>
				<rect x="0" y="1579.05" width="432" height="43.2" class="st1"/>
				<text x="0" y="1611.45" class="st2" v:langID="3081"><v:paragraph/><v:tabList/>Azure OpenAI</text>			</g>
			<g id="shape139-107" v:mID="139" v:groupContext="shape" transform="translate(1914.87,-1011.75)">
				<title>Sheet.139</title>
				<desc>C</desc>
				<v:textBlock v:margins="rect(0,0,0,0)"/>
				<v:textRect cx="20.625" cy="1597.5" width="41.26" height="49.5"/>
				<rect x="0" y="1572.75" width="41.25" height="49.5" class="st1"/>
				<text x="0" y="1609.88" class="st21" v:langID="3081"><v:paragraph/><v:tabList/>C</text>			</g>
			<g id="shape142-110" v:mID="142" v:groupContext="shape" transform="translate(519.273,-1244.44)">
				<title>Sheet.142</title>
				<path d="M0 1610.22 L10.31 1610.22 L10.31 1613.66 L0 1613.66 L0 1610.22 ZM13.75 1610.22 L24.06 1610.22 L24.06 1613.66
							 L13.75 1613.66 L13.75 1610.22 ZM27.5 1610.22 L37.81 1610.22 L37.81 1613.66 L27.5 1613.66 L27.5 1610.22
							 ZM41.25 1610.22 L51.56 1610.22 L51.56 1613.66 L41.25 1613.66 L41.25 1610.22 ZM55 1610.22 L65.31 1610.22
							 L65.31 1613.66 L55 1613.66 L55 1610.22 ZM68.75 1610.22 L79.06 1610.22 L79.06 1613.66 L68.75 1613.66
							 L68.75 1610.22 ZM82.5 1610.22 L92.81 1610.22 L92.81 1613.66 L82.5 1613.66 L82.5 1610.22 ZM96.25 1610.22
							 L106.56 1610.22 L106.56 1613.66 L96.25 1613.66 L96.25 1610.22 ZM110 1610.22 L120.31 1610.22 L120.31
							 1613.66 L110 1613.66 L110 1610.22 ZM123.75 1610.22 L134.06 1610.22 L134.06 1613.66 L123.75 1613.66 L123.75
							 1610.22 ZM137.5 1610.22 L147.81 1610.22 L147.81 1613.66 L137.5 1613.66 L137.5 1610.22 ZM151.25 1610.22
							 L161.56 1610.22 L161.56 1613.66 L151.25 1613.66 L151.25 1610.22 ZM165 1610.22 L175.31 1610.22 L175.31
							 1613.66 L165 1613.66 L165 1610.22 ZM178.75 1610.22 L189.06 1610.22 L189.06 1613.66 L178.75 1613.66 L178.75
							 1610.22 ZM192.5 1610.22 L202.81 1610.22 L202.81 1613.66 L192.5 1613.66 L192.5 1610.22 ZM206.25 1610.22
							 L216.56 1610.22 L216.56 1613.66 L206.25 1613.66 L206.25 1610.22 ZM220 1610.22 L230.31 1610.22 L230.31
							 1613.66 L220 1613.66 L220 1610.22 ZM233.75 1610.22 L244.06 1610.22 L244.06 1613.66 L233.75 1613.66 L233.75
							 1610.22 ZM247.5 1610.22 L252.25 1610.22 L252.25 1613.66 L247.5 1613.66 L247.5 1610.22 ZM248.82 1601.63
							 L269.44 1611.94 L248.82 1622.25 L248.82 1601.63 Z" class="st16"/>
			</g>
			<g id="group143-112" transform="translate(393.648,-1028.62)" v:mID="143" v:groupContext="group">
				<title>clip19</title>
				<g id="shape144-113" v:mID="144" v:groupContext="shape">
					<title>Sheet.144</title>
					<rect x="0" y="1469.25" width="146.25" height="153" class="st23"/>
				</g>
			</g>
			<g id="shape145-115" v:mID="145" v:groupContext="shape" transform="translate(1274.31,-864.652)">
				<title>Sheet.145</title>
				<path d="M287.82 1613.65 L277.51 1613.65 L277.51 1610.21 L287.82 1610.21 L287.82 1613.65 ZM274.07 1613.65 L263.76
							 1613.65 L263.76 1610.21 L274.07 1610.21 L274.07 1613.65 ZM260.32 1613.65 L250.01 1613.65 L250.01 1610.21
							 L260.32 1610.21 L260.32 1613.65 ZM246.57 1613.65 L236.26 1613.65 L236.26 1610.21 L246.57 1610.21 L246.57
							 1613.65 ZM232.82 1613.65 L222.51 1613.65 L222.51 1610.21 L232.82 1610.21 L232.82 1613.65 ZM219.07 1613.65
							 L208.76 1613.65 L208.76 1610.21 L219.07 1610.21 L219.07 1613.65 ZM205.32 1613.65 L195.01 1613.65 L195.01
							 1610.21 L205.32 1610.21 L205.32 1613.65 ZM191.57 1613.65 L181.26 1613.65 L181.26 1610.21 L191.57 1610.21
							 L191.57 1613.65 ZM177.82 1613.65 L167.51 1613.65 L167.51 1610.21 L177.82 1610.21 L177.82 1613.65 ZM164.07
							 1613.65 L153.76 1613.65 L153.76 1610.21 L164.07 1610.21 L164.07 1613.65 ZM150.32 1613.65 L140.01 1613.65
							 L140.01 1610.21 L150.32 1610.21 L150.32 1613.65 ZM136.57 1613.65 L126.26 1613.65 L126.26 1610.21 L136.57
							 1610.21 L136.57 1613.65 ZM122.82 1613.65 L112.51 1613.65 L112.51 1610.21 L122.82 1610.21 L122.82 1613.65
							 ZM109.07 1613.65 L98.76 1613.65 L98.76 1610.21 L109.07 1610.21 L109.07 1613.65 ZM95.32 1613.65 L85.01
							 1613.65 L85.01 1610.21 L95.32 1610.21 L95.32 1613.65 ZM81.57 1613.65 L71.26 1613.65 L71.26 1610.21 L81.57
							 1610.21 L81.57 1613.65 ZM67.82 1613.65 L57.51 1613.65 L57.51 1610.21 L67.82 1610.21 L67.82 1613.65 ZM54.07
							 1613.65 L43.76 1613.65 L43.76 1610.21 L54.07 1610.21 L54.07 1613.65 ZM40.32 1613.65 L30.01 1613.65 L30.01
							 1610.21 L40.32 1610.21 L40.32 1613.65 ZM26.57 1613.65 L16.26 1613.65 L16.26 1610.21 L26.57 1610.21 L26.57
							 1613.65 ZM12.82 1613.65 L2.51 1613.65 L2.51 1610.21 L12.82 1610.21 L12.82 1613.65 ZM0 1609.29 L0 1598.98
							 L3.43 1598.98 L3.43 1609.29 L0 1609.29 ZM0 1595.54 L0 1585.23 L3.43 1585.23 L3.43 1595.54 L0 1595.54
							 ZM0 1581.79 L0 1571.48 L3.43 1571.48 L3.43 1581.79 L0 1581.79 ZM0 1568.04 L0 1557.73 L3.43 1557.73 L3.43
							 1568.04 L0 1568.04 ZM0 1554.29 L0 1543.98 L3.43 1543.98 L3.43 1554.29 L0 1554.29 ZM0 1540.54 L0 1530.23
							 L3.43 1530.23 L3.43 1540.54 L0 1540.54 ZM0 1526.79 L0 1516.48 L3.43 1516.48 L3.43 1526.79 L0 1526.79
							 ZM0 1513.04 L0 1502.73 L3.43 1502.73 L3.43 1513.04 L0 1513.04 ZM0 1499.29 L0 1488.98 L3.43 1488.98 L3.43
							 1499.29 L0 1499.29 ZM0 1485.54 L0 1475.23 L3.43 1475.23 L3.43 1485.54 L0 1485.54 ZM0 1471.79 L0 1461.48
							 L3.43 1461.48 L3.43 1471.79 L0 1471.79 ZM0 1458.04 L0 1447.73 L3.43 1447.73 L3.43 1458.04 L0 1458.04
							 ZM0 1444.29 L0 1433.98 L3.43 1433.98 L3.43 1444.29 L0 1444.29 ZM0 1430.54 L0 1420.23 L3.43 1420.23 L3.43
							 1430.54 L0 1430.54 ZM0 1416.79 L0 1406.48 L3.43 1406.48 L3.43 1416.79 L0 1416.79 ZM0 1403.04 L0 1392.73
							 L3.43 1392.73 L3.43 1403.04 L0 1403.04 ZM0 1389.29 L0 1378.98 L3.43 1378.98 L3.43 1389.29 L0 1389.29
							 ZM0 1375.54 L0 1365.23 L3.43 1365.23 L3.43 1375.54 L0 1375.54 ZM0 1361.79 L0 1351.48 L3.43 1351.48 L3.43
							 1361.79 L0 1361.79 ZM0 1348.04 L0 1342.4 L3.43 1342.4 L3.43 1348.04 L0 1348.04 ZM284.38 1601.63 L305.01
							 1611.94 L284.38 1622.25 L284.38 1601.63 Z" class="st16"/>
			</g>
			<g id="shape146-117" v:mID="146" v:groupContext="shape" transform="translate(1624.21,2118.49) scale(1,-1)">
				<title>Sheet.146</title>
				<path d="M12.03 1474.44 L12.03 1484.75 L8.59 1484.75 L8.59 1474.44 L12.03 1474.44 ZM12.03 1488.19 L12.03 1498.5 L8.59
							 1498.5 L8.59 1488.19 L12.03 1488.19 ZM12.03 1501.94 L12.03 1512.25 L8.59 1512.25 L8.59 1501.94 L12.03
							 1501.94 ZM12.03 1515.69 L12.03 1526 L8.59 1526 L8.59 1515.69 L12.03 1515.69 ZM12.03 1529.44 L12.03 1539.75
							 L8.59 1539.75 L8.59 1529.44 L12.03 1529.44 ZM12.03 1543.19 L12.03 1553.5 L8.59 1553.5 L8.59 1543.19
							 L12.03 1543.19 ZM12.03 1556.94 L12.03 1567.25 L8.59 1567.25 L8.59 1556.94 L12.03 1556.94 ZM12.03 1570.69
							 L12.03 1581 L8.59 1581 L8.59 1570.69 L12.03 1570.69 ZM12.03 1584.44 L12.03 1594.75 L8.59 1594.75 L8.59
							 1584.44 L12.03 1584.44 ZM12.03 1598.19 L12.03 1608.5 L8.59 1608.5 L8.59 1598.19 L12.03 1598.19 ZM12.03
							 1611.94 L12.03 1622.25 L8.59 1622.25 L8.59 1611.94 L12.03 1611.94 ZM0 1477.88 L10.31 1457.25 L20.63
							 1477.88 L0 1477.88 Z" class="st16"/>
			</g>
			<g id="shape147-119" v:mID="147" v:groupContext="shape" transform="translate(1696.02,-879.938)">
				<title>Sheet.147</title>
				<path d="M247.82 1613.65 L237.51 1613.65 L237.51 1610.22 L247.82 1610.22 L247.82 1613.65 ZM234.08 1613.65 L223.76
							 1613.65 L223.76 1610.22 L234.08 1610.22 L234.08 1613.65 ZM220.32 1613.65 L210.01 1613.65 L210.01 1610.22
							 L220.32 1610.22 L220.32 1613.65 ZM206.57 1613.65 L196.26 1613.65 L196.26 1610.22 L206.57 1610.22 L206.57
							 1613.65 ZM192.83 1613.65 L182.51 1613.65 L182.51 1610.22 L192.83 1610.22 L192.83 1613.65 ZM179.07 1613.65
							 L168.76 1613.65 L168.76 1610.22 L179.07 1610.22 L179.07 1613.65 ZM165.32 1613.65 L155.01 1613.65 L155.01
							 1610.22 L165.32 1610.22 L165.32 1613.65 ZM151.58 1613.65 L141.26 1613.65 L141.26 1610.22 L151.58 1610.22
							 L151.58 1613.65 ZM137.82 1613.65 L127.51 1613.65 L127.51 1610.22 L137.82 1610.22 L137.82 1613.65 ZM124.07
							 1613.65 L113.76 1613.65 L113.76 1610.22 L124.07 1610.22 L124.07 1613.65 ZM110.33 1613.65 L100.01 1613.65
							 L100.01 1610.22 L110.33 1610.22 L110.33 1613.65 ZM96.57 1613.65 L86.26 1613.65 L86.26 1610.22 L96.57
							 1610.22 L96.57 1613.65 ZM82.82 1613.65 L72.51 1613.65 L72.51 1610.22 L82.82 1610.22 L82.82 1613.65 ZM69.08
							 1613.65 L58.76 1613.65 L58.76 1610.22 L69.08 1610.22 L69.08 1613.65 ZM55.32 1613.65 L45.01 1613.65 L45.01
							 1610.22 L55.32 1610.22 L55.32 1613.65 ZM41.57 1613.65 L31.26 1613.65 L31.26 1610.22 L41.57 1610.22 L41.57
							 1613.65 ZM27.83 1613.65 L17.51 1613.65 L17.51 1610.22 L27.83 1610.22 L27.83 1613.65 ZM20.63 1622.25
							 L0 1611.94 L20.63 1601.62 L20.63 1622.25 Z" class="st16"/>
			</g>
			<g id="group148-121" transform="translate(388.398,-1193.62)" v:mID="148" v:groupContext="group">
				<title>clip21</title>
				<g id="shape149-122" v:mID="149" v:groupContext="shape">
					<title>Sheet.149</title>
					<rect x="0" y="1505.25" width="111.75" height="117" class="st23"/>
				</g>
			</g>
			<g id="shape150-124" v:mID="150" v:groupContext="shape" transform="translate(1.52198E-11,-1131.08)">
				<title>Sheet.150</title>
				<desc>Simple documents with</desc>
				<v:textBlock v:margins="rect(0,0,0,0)"/>
				<v:textRect cx="396" cy="1600.65" width="792" height="43.2"/>
				<rect x="0" y="1579.05" width="792" height="43.2" class="st1"/>
				<text x="0" y="1611.45" class="st2" v:langID="3081"><v:paragraph/><v:tabList/>Simple documents with  </text>			</g>
			<g id="shape151-127" v:mID="151" v:groupContext="shape" transform="translate(3.03757E-12,-1087.58)">
				<title>Sheet.151</title>
				<desc>text and tables</desc>
				<v:textBlock v:margins="rect(0,0,0,0)"/>
				<v:textRect cx="270" cy="1600.65" width="540" height="43.2"/>
				<rect x="0" y="1579.05" width="540" height="43.2" class="st1"/>
				<text x="0" y="1611.45" class="st2" v:langID="3081"><v:paragraph/><v:tabList/>text and tables</text>			</g>
			<g id="shape152-130" v:mID="152" v:groupContext="shape" transform="translate(523.398,2008.97) scale(1,-1)">
				<title>Sheet.152</title>
				<path d="M0 1521.82 L4.41 1521.82 L4.41 1524.63 L0 1524.63 L0 1521.82 ZM5.88 1521.82 L10.3 1521.82 L10.3 1524.63
							 L5.88 1524.63 L5.88 1521.82 ZM11.77 1521.82 L16.18 1521.82 L16.18 1524.63 L11.77 1524.63 L11.77 1521.82
							 ZM17.65 1521.82 L22.06 1521.82 L22.06 1524.63 L17.65 1524.63 L17.65 1521.82 ZM23.54 1521.82 L27.95 1521.82
							 L27.95 1524.63 L23.54 1524.63 L23.54 1521.82 ZM29.42 1521.82 L33.83 1521.82 L33.83 1524.63 L29.42 1524.63
							 L29.42 1521.82 ZM35.3 1521.82 L39.72 1521.82 L39.72 1524.63 L35.3 1524.63 L35.3 1521.82 ZM41.19 1521.82
							 L45.6 1521.82 L45.6 1524.63 L41.19 1524.63 L41.19 1521.82 ZM47.07 1521.82 L51.48 1521.82 L51.48 1524.63
							 L47.07 1524.63 L47.07 1521.82 ZM52.96 1521.82 L57.37 1521.82 L57.37 1524.63 L52.96 1524.63 L52.96 1521.82
							 ZM58.84 1521.82 L63.25 1521.82 L63.25 1524.63 L58.84 1524.63 L58.84 1521.82 ZM64.72 1521.82 L69.14 1521.82
							 L69.14 1524.63 L64.72 1524.63 L64.72 1521.82 ZM70.61 1521.82 L75.02 1521.82 L75.02 1524.63 L70.61 1524.63
							 L70.61 1521.82 ZM76.49 1521.82 L80.9 1521.82 L80.9 1524.63 L76.49 1524.63 L76.49 1521.82 ZM82.38 1521.82
							 L86.79 1521.82 L86.79 1524.63 L82.38 1524.63 L82.38 1521.82 ZM88.26 1521.82 L92.67 1521.82 L92.67 1524.63
							 L88.26 1524.63 L88.26 1521.82 ZM94.14 1521.82 L98.56 1521.82 L98.56 1524.63 L94.14 1524.63 L94.14 1521.82
							 ZM100.03 1521.82 L104.44 1521.82 L104.44 1524.63 L100.03 1524.63 L100.03 1521.82 ZM105.91 1521.82 L110.32
							 1521.82 L110.32 1524.63 L105.91 1524.63 L105.91 1521.82 ZM111.8 1521.82 L116.21 1521.82 L116.21 1524.63
							 L111.8 1524.63 L111.8 1521.82 ZM117.68 1521.82 L122.09 1521.82 L122.09 1524.63 L117.68 1524.63 L117.68
							 1521.82 ZM123.56 1521.82 L127.98 1521.82 L127.98 1524.63 L123.56 1524.63 L123.56 1521.82 ZM129.45 1521.82
							 L133.86 1521.82 L133.86 1524.63 L129.45 1524.63 L129.45 1521.82 ZM135.33 1521.82 L139.74 1521.82 L139.74
							 1524.63 L135.33 1524.63 L135.33 1521.82 ZM141.22 1521.82 L145.63 1521.82 L145.63 1524.63 L141.22 1524.63
							 L141.22 1521.82 ZM147.1 1521.82 L151.51 1521.82 L151.51 1524.63 L147.1 1524.63 L147.1 1521.82 ZM152.98
							 1521.82 L157.4 1521.82 L157.4 1524.63 L152.98 1524.63 L152.98 1521.82 ZM158.87 1521.82 L163.28 1521.82
							 L163.28 1524.63 L158.87 1524.63 L158.87 1521.82 ZM164.75 1521.82 L169.16 1521.82 L169.16 1524.63 L164.75
							 1524.63 L164.75 1521.82 ZM170.63 1521.82 L175.05 1521.82 L175.05 1524.63 L170.63 1524.63 L170.63 1521.82
							 ZM176.52 1521.82 L180.93 1521.82 L180.93 1524.63 L176.52 1524.63 L176.52 1521.82 ZM182.4 1521.82 L186.82
							 1521.82 L186.82 1524.63 L182.4 1524.63 L182.4 1521.82 ZM188.29 1521.82 L192.7 1521.82 L192.7 1524.63
							 L188.29 1524.63 L188.29 1521.82 ZM194.17 1521.82 L198.58 1521.82 L198.58 1524.63 L194.17 1524.63 L194.17
							 1521.82 ZM200.05 1521.82 L204.47 1521.82 L204.47 1524.63 L200.05 1524.63 L200.05 1521.82 ZM205.94 1521.82
							 L210.35 1521.82 L210.35 1524.63 L205.94 1524.63 L205.94 1521.82 ZM212.23 1523.84 L212.23 1532.27 L210.76
							 1532.27 L210.76 1523.84 L212.23 1523.84 ZM212.23 1535.07 L212.23 1543.5 L210.76 1543.5 L210.76 1535.07
							 L212.23 1535.07 ZM212.23 1546.31 L212.23 1554.74 L210.76 1554.74 L210.76 1546.31 L212.23 1546.31 ZM212.23
							 1557.55 L212.23 1565.97 L210.76 1565.97 L210.76 1557.55 L212.23 1557.55 ZM212.23 1568.78 L212.23 1577.21
							 L210.76 1577.21 L210.76 1568.78 L212.23 1568.78 ZM212.23 1580.02 L212.23 1588.44 L210.76 1588.44 L210.76
							 1580.02 L212.23 1580.02 ZM212.23 1591.25 L212.23 1599.68 L210.76 1599.68 L210.76 1591.25 L212.23 1591.25
							 ZM212.23 1602.49 L212.23 1610.91 L210.76 1610.91 L210.76 1602.49 L212.23 1602.49 ZM212.23 1613.72 L212.23
							 1613.82 L211.5 1612.42 L215.86 1612.42 L215.86 1615.23 L210.76 1615.23 L210.76 1613.72 L212.23 1613.72
							 ZM217.33 1612.42 L221.74 1612.42 L221.74 1615.23 L217.33 1615.23 L217.33 1612.42 ZM223.21 1612.42 L227.63
							 1612.42 L227.63 1615.23 L223.21 1615.23 L223.21 1612.42 ZM229.1 1612.42 L233.51 1612.42 L233.51 1615.23
							 L229.1 1615.23 L229.1 1612.42 ZM234.98 1612.42 L239.4 1612.42 L239.4 1615.23 L234.98 1615.23 L234.98
							 1612.42 ZM240.87 1612.42 L245.28 1612.42 L245.28 1615.23 L240.87 1615.23 L240.87 1612.42 ZM246.75 1612.42
							 L251.16 1612.42 L251.16 1615.23 L246.75 1615.23 L246.75 1612.42 ZM252.63 1612.42 L257.05 1612.42 L257.05
							 1615.23 L252.63 1615.23 L252.63 1612.42 ZM258.52 1612.42 L259.82 1612.42 L259.82 1615.23 L258.52 1615.23
							 L258.52 1612.42 ZM258.35 1605.4 L267.17 1613.82 L258.35 1622.25 L258.35 1605.4 Z" class="st16"/>
			</g>
			<g id="group155-132" transform="translate(1576.4,-836.183)" v:mID="155" v:groupContext="group">
				<title>Sheet.155</title>
				<g id="shape156-133" v:mID="156" v:groupContext="shape" transform="translate(2.5235,-74.1521)">
					<title>Sheet.156</title>
					<path d="M14.46 1622.25 C13.87 1622.25 13.39 1621.78 13.38 1621.19 C13.38 1621.18 13.38 1621.18 13.38 1621.18
								 C13.37 1614.43 7.87 1608.96 1.08 1608.95 C0.49 1608.95 0 1608.48 0 1607.89 C0 1607.3 0.48 1606.82
								 1.08 1606.82 C7.87 1606.81 13.38 1601.34 13.38 1594.59 C13.38 1594 13.86 1593.52 14.45 1593.52 C14.45
								 1593.52 14.46 1593.52 14.46 1593.52 L14.46 1593.52 C15.05 1593.52 15.54 1593.99 15.54 1594.58 C15.54
								 1594.58 15.54 1594.59 15.54 1594.59 C15.55 1601.34 21.05 1606.8 27.84 1606.81 C28.44 1606.81 28.92
								 1607.28 28.92 1607.87 C28.92 1607.88 28.92 1607.88 28.92 1607.88 C28.93 1608.47 28.45 1608.95 27.86
								 1608.95 C27.85 1608.95 27.85 1608.95 27.84 1608.95 C21.05 1608.96 15.55 1614.43 15.54 1621.18 C15.54
								 1621.77 15.06 1622.24 14.46 1622.25 Z" class="st24"/>
				</g>
				<g id="shape157-135" v:mID="157" v:groupContext="shape" transform="translate(82.9382,-4.54747E-13)">
					<title>Sheet.157</title>
					<path d="M11.57 1622.25 C11.09 1622.25 10.71 1621.87 10.71 1621.39 C10.7 1616 6.3 1611.62 0.86 1611.62 C0.39
								 1611.62 0 1611.24 0 1610.77 C0 1610.29 0.39 1609.91 0.86 1609.91 C6.3 1609.9 10.7 1605.53 10.71
								 1600.13 C10.71 1599.66 11.09 1599.27 11.57 1599.27 C12.05 1599.27 12.43 1599.66 12.43 1600.13 C12.44
								 1605.53 16.84 1609.9 22.28 1609.91 C22.75 1609.91 23.14 1610.29 23.14 1610.77 C23.14 1611.24 22.75
								 1611.62 22.28 1611.62 C16.84 1611.63 12.44 1616 12.43 1621.4 C12.43 1621.87 12.05 1622.25 11.57
								 1622.25 Z" class="st24"/>
				</g>
				<g id="shape158-137" v:mID="158" v:groupContext="shape" transform="translate(12.6321,-10.605)">
					<title>Sheet.158</title>
					<path d="M77.94 1572.47 C82.77 1592.53 70.31 1612.67 50.12 1617.46 C29.93 1622.25 9.65 1609.88 4.82 1589.82 C0
								 1569.77 12.46 1549.63 32.65 1544.84 C52.84 1540.04 73.12 1552.42 77.94 1572.47 L77.94 1572.47 Z"
							class="st25"/>
				</g>
				<g id="group159-141" transform="translate(16.4169,-14.3656)" v:mID="159" v:groupContext="group">
					<title>clip23</title>
					<g id="shape160-142" v:mID="160" v:groupContext="shape">
						<title>Sheet.160</title>
						<path d="M74.16 1576.23 C78.98 1596.29 66.53 1616.43 46.34 1621.22 C26.14 1626.01 5.86 1613.64 1.04 1593.58
									 C-3.79 1573.53 8.67 1553.39 28.86 1548.6 C49.06 1543.81 69.33 1556.18 74.16 1576.23 Z"
								class="st23"/>
					</g>
				</g>
				<g id="shape161-144" v:mID="161" v:groupContext="shape" transform="translate(-3.59712E-13,-14.9887)">
					<title>Sheet.161</title>
					<path d="M104.19 1554.36 C100.33 1547.99 91.32 1545.51 78.74 1547.37 C74.42 1547.98 70.16 1548.9 65.98 1550.12
								 C69.3 1551.26 72.45 1552.83 75.34 1554.79 C76.82 1554.46 78.3 1554.08 79.72 1553.87 C81.96 1553.52
								 84.22 1553.34 86.48 1553.33 C90.97 1552.68 95.49 1554.34 98.48 1557.74 C100.82 1561.62 98.85 1568.25
								 93.05 1575.99 C85 1585.94 75.13 1594.3 63.96 1600.63 C53.05 1607.4 40.95 1612.06 28.29 1614.39 C18.71
								 1615.81 11.86 1614.39 9.52 1610.52 C7.17 1606.65 9.15 1600 14.94 1592.3 C15.66 1591.35 15.84 1590.88
								 16.65 1589.92 C16.27 1586.62 16.32 1583.29 16.81 1580 C14.21 1582.59 11.81 1585.38 9.65 1588.35
								 C2.06 1598.43 0 1607.49 3.85 1613.86 C7.98 1619.36 14.75 1622.25 21.61 1621.46 C24.17 1621.45 26.74
								 1621.24 29.27 1620.85 C42.78 1618.4 55.7 1613.45 67.36 1606.25 C79.27 1599.48 89.79 1590.54 98.36
								 1579.9 C105.97 1569.79 108.03 1560.74 104.19 1554.36 Z" class="st24"/>
				</g>
			</g>
		</g>
		<g id="group169-146" transform="translate(810,-832.992)" v:mID="169" v:groupContext="group">
			<title>Icon-integration-221</title>
			<g id="group170-147" v:mID="170" v:groupContext="group">
				<title>b30b0bd5-e4d2-456b-8d49-c2df202</title>
				<g id="shape171-148" v:mID="171" v:groupContext="shape" transform="translate(54.257,-68.6734)">
					<title>b51878b5-8d50-4b8b-bc48-74f5f73</title>
					<path d="M53.92 1598.67 L53.92 1595.32 L28.67 1595.32 L16.82 1607.11 L8.1 1607.11 L28.33 1586.66 L42.13 1586.66
								 L42.13 1583.47 L26.93 1583.47 L3.35 1607.11 L0 1607.11 L0 1610.46 L10.11 1610.46 L22.07 1622.25
								 L50.57 1622.25 L50.57 1618.9 L23.3 1618.9 L14.86 1610.46 L35.37 1610.46 L35.37 1607.11 L21.62 1607.11
								 L30.01 1598.67 L53.92 1598.67 Z" class="st26"/>
				</g>
				<g id="shape172-150" v:mID="172" v:groupContext="shape" transform="translate(88.1188,-77.2786)">
					<title>ad0ed4eb-cd5f-4cc0-bd19-2830d27</title>
					<ellipse cx="4.86134" cy="1617.39" rx="4.86134" ry="4.86134" class="st27"/>
				</g>
				<g id="shape173-152" v:mID="173" v:groupContext="shape" transform="translate(93.2036,-100.859)">
					<title>a2746b4a-0ae4-4308-876e-5b82657</title>
					<ellipse cx="4.86134" cy="1617.39" rx="4.86134" ry="4.86134" class="st27"/>
				</g>
				<g id="shape174-154" v:mID="174" v:groupContext="shape" transform="translate(104.994,-89.0687)">
					<title>fc3316e0-7094-4ce0-99ed-43f1e6e</title>
					<ellipse cx="4.86134" cy="1617.39" rx="4.86134" ry="4.86134" class="st27"/>
				</g>
				<g id="shape175-156" v:mID="175" v:groupContext="shape" transform="translate(99.9648,-65.4884)">
					<title>b5d18443-d50e-4590-8e8f-80b6a7f</title>
					<ellipse cx="4.86134" cy="1617.39" rx="4.86134" ry="4.86134" class="st27"/>
				</g>
				<g id="shape176-158" v:mID="176" v:groupContext="shape" transform="translate(92.0302,-99.8531)">
					<title>Sheet.176</title>
					<ellipse cx="5.86714" cy="1616.38" rx="5.86714" ry="5.86714" class="st28"/>
				</g>
				<g id="shape177-160" v:mID="177" v:groupContext="shape" transform="translate(103.82,-88.0629)">
					<title>Sheet.177</title>
					<ellipse cx="5.86714" cy="1616.38" rx="5.86714" ry="5.86714" class="st29"/>
				</g>
				<g id="shape178-164" v:mID="178" v:groupContext="shape" transform="translate(98.959,-64.4826)">
					<title>Sheet.178</title>
					<ellipse cx="5.86714" cy="1616.38" rx="5.86714" ry="5.86714" class="st1"/>
				</g>
				<g id="shape179-166" v:mID="179" v:groupContext="shape" transform="translate(87.113,-76.2728)">
					<title>Sheet.179</title>
					<ellipse cx="5.86714" cy="1616.38" rx="5.86714" ry="5.86714" class="st28"/>
				</g>
				<g id="group180-168" transform="translate(37.2144,-108.235)" v:mID="180" v:groupContext="group">
					<title>Sheet.180</title>
					<g id="shape181-169" v:mID="181" v:groupContext="shape">
						<title>Sheet.181</title>
						<path d="M5.98 1600.68 L13.19 1600.68 L13.19 1620.63 A1.62045 1.62045 0 0 1 11.57 1622.25 L4.41 1622.25 A1.62045
									 1.62045 0 0 1 2.79 1620.63 L2.79 1603.87 A3.18502 3.18502 0 0 1 5.98 1600.68 Z" class="st30"/>
					</g>
					<g id="shape182-171" v:mID="182" v:groupContext="shape">
						<title>Sheet.182</title>
						<path d="M5.98 1600.68 L13.19 1600.68 L13.19 1620.63 A1.62045 1.62045 0 0 1 11.57 1622.25 L4.41 1622.25 A1.62045
									 1.62045 0 0 1 2.79 1620.63 L2.79 1603.87 A3.18502 3.18502 0 0 1 5.98 1600.68 Z" class="st31"/>
					</g>
				</g>
				<g id="group183-173" transform="translate(37.2144,-108.235)" v:mID="183" v:groupContext="group">
					<title>Sheet.183</title>
					<g id="shape184-174" v:mID="184" v:groupContext="shape">
						<title>Sheet.184</title>
						<path d="M87.39 1600.68 L94.6 1600.68 A3.18502 3.18502 0 0 1 97.79 1603.87 L97.79 1620.63 A1.62045 1.62045
									 0 0 1 96.17 1622.25 L88.96 1622.25 A1.62045 1.62045 0 0 1 87.39 1620.63 L87.39 1600.68 Z"
								class="st30"/>
					</g>
					<g id="shape185-176" v:mID="185" v:groupContext="shape">
						<title>Sheet.185</title>
						<path d="M87.39 1600.68 L94.6 1600.68 A3.18502 3.18502 0 0 1 97.79 1603.87 L97.79 1620.63 A1.62045 1.62045
									 0 0 1 96.17 1622.25 L88.96 1622.25 A1.62045 1.62045 0 0 1 87.39 1620.63 L87.39 1600.68 Z"
								class="st31"/>
					</g>
				</g>
				<g id="shape186-178" v:mID="186" v:groupContext="shape" transform="translate(1662.26,1447.24) rotate(90)">
					<title>Sheet.186</title>
					<path d="M48.39 1527.26 L55.37 1527.26 L55.37 1622.25 L48.39 1622.25 A3.18502 3.18502 0 0 1 45.2 1619.06 L45.2
								 1530.39 A3.18502 3.18502 0 0 1 48.39 1527.26 Z" class="st32"/>
				</g>
				<g id="group187-180" transform="translate(37.2144,-45.2049)" v:mID="187" v:groupContext="group">
					<title>Sheet.187</title>
					<g id="shape188-181" v:mID="188" v:groupContext="shape">
						<title>Sheet.188</title>
						<path d="M4.41 1600.51 L11.62 1600.51 A1.62045 1.62045 0 0 1 13.24 1602.13 L13.24 1622.25 L5.98 1622.25 A3.18502
									 3.18502 0 0 1 2.79 1619.06 L2.79 1602.3 A1.62045 1.62045 0 0 1 4.41 1600.51 Z" class="st30"/>
					</g>
					<g id="shape189-183" v:mID="189" v:groupContext="shape">
						<title>Sheet.189</title>
						<path d="M4.41 1600.51 L11.62 1600.51 A1.62045 1.62045 0 0 1 13.24 1602.13 L13.24 1622.25 L5.98 1622.25 A3.18502
									 3.18502 0 0 1 2.79 1619.06 L2.79 1602.3 A1.62045 1.62045 0 0 1 4.41 1600.51 Z" class="st31"/>
					</g>
				</g>
				<g id="group190-185" transform="translate(37.2144,-45.3725)" v:mID="190" v:groupContext="group">
					<title>Sheet.190</title>
					<g id="shape191-186" v:mID="191" v:groupContext="shape">
						<title>Sheet.191</title>
						<path d="M88.96 1600.68 L96.17 1600.68 A1.62045 1.62045 0 0 1 97.79 1602.3 L97.79 1619.06 A3.18502 3.18502
									 0 0 1 94.6 1622.25 L87.39 1622.25 L87.39 1602.47 A1.62045 1.62045 0 0 1 88.96 1600.68 Z"
								class="st30"/>
					</g>
					<g id="shape192-188" v:mID="192" v:groupContext="shape">
						<title>Sheet.192</title>
						<path d="M88.96 1600.68 L96.17 1600.68 A1.62045 1.62045 0 0 1 97.79 1602.3 L97.79 1619.06 A3.18502 3.18502
									 0 0 1 94.6 1622.25 L87.39 1622.25 L87.39 1602.47 A1.62045 1.62045 0 0 1 88.96 1600.68 Z"
								class="st31"/>
					</g>
				</g>
				<g id="shape193-190" v:mID="193" v:groupContext="shape" transform="translate(-1487.25,1622.25) rotate(-90)">
					<title>Sheet.193</title>
					<path d="M48.39 1527.26 L55.37 1527.26 L55.37 1622.25 L48.39 1622.25 A3.18502 3.18502 0 0 1 45.2 1619.06 L45.2
								 1530.44 A3.18502 3.18502 0 0 1 48.39 1527.26 Z" class="st32"/>
				</g>
			</g>
		</g>
		<g id="group213-192" transform="translate(1219.43,-1329)" v:mID="213" v:groupContext="group">
			<title>Sheet.213</title>
			<g id="shape153-193" v:mID="153" v:groupContext="shape">
				<title>Sheet.153</title>
				<path d="M0 1593.75 C0 1578.01 12.93 1565.25 28.87 1565.25 C44.82 1565.25 57.75 1578.01 57.75 1593.75 C57.75 1609.49
							 44.82 1622.25 28.87 1622.25 C12.93 1622.25 0 1609.49 0 1593.75 Z" class="st20"/>
			</g>
			<g id="shape154-195" v:mID="154" v:groupContext="shape" transform="translate(17.325,-3)">
				<title>Sheet.154</title>
				<desc>3</desc>
				<v:textBlock v:margins="rect(0,0,0,0)"/>
				<v:textRect cx="20.625" cy="1597.5" width="41.26" height="49.5"/>
				<rect x="0" y="1572.75" width="41.25" height="49.5" class="st1"/>
				<text x="-0" y="1609.88" class="st21" v:langID="3081"><v:paragraph/><v:tabList/>3</text>			</g>
		</g>
		<g id="group214-198" transform="translate(1032.62,-943.5)" v:mID="214" v:groupContext="group">
			<title>Sheet.214</title>
			<g id="shape65-199" v:mID="65" v:groupContext="shape">
				<title>Sheet.65</title>
				<path d="M0 1593.75 C0 1578.01 12.93 1565.25 28.87 1565.25 C44.82 1565.25 57.75 1578.01 57.75 1593.75 C57.75 1609.49
							 44.82 1622.25 28.87 1622.25 C12.93 1622.25 0 1609.49 0 1593.75 Z" class="st20"/>
			</g>
			<g id="shape66-201" v:mID="66" v:groupContext="shape" transform="translate(17.52,-3)">
				<title>Sheet.66</title>
				<desc>2</desc>
				<v:textBlock v:margins="rect(0,0,0,0)"/>
				<v:textRect cx="20.625" cy="1597.5" width="41.26" height="49.5"/>
				<rect x="0" y="1572.75" width="41.25" height="49.5" class="st1"/>
				<text x="0" y="1609.88" class="st21" v:langID="3081"><v:paragraph/><v:tabList/>2</text>			</g>
		</g>
		<g id="shape215-204" v:mID="215" v:groupContext="shape" transform="translate(2511.94,470.25) rotate(90)">
			<title>Sheet.215</title>
			<path d="M0 1610.22 L6.2 1610.22 L6.2 1613.66 L0 1613.66 L0 1610.22 ZM8.27 1610.22 L14.47 1610.22 L14.47 1613.66 L8.27
						 1613.66 L8.27 1610.22 ZM16.54 1610.22 L22.74 1610.22 L22.74 1613.66 L16.54 1613.66 L16.54 1610.22 ZM24.8
						 1610.22 L31 1610.22 L31 1613.66 L24.8 1613.66 L24.8 1610.22 ZM33.07 1610.22 L39.27 1610.22 L39.27 1613.66
						 L33.07 1613.66 L33.07 1610.22 ZM41.34 1610.22 L47.54 1610.22 L47.54 1613.66 L41.34 1613.66 L41.34 1610.22
						 ZM49.6 1610.22 L55.8 1610.22 L55.8 1613.66 L49.6 1613.66 L49.6 1610.22 ZM57.87 1610.22 L64.07 1610.22 L64.07
						 1613.66 L57.87 1613.66 L57.87 1610.22 ZM66.14 1610.22 L72.34 1610.22 L72.34 1613.66 L66.14 1613.66 L66.14
						 1610.22 ZM74.4 1610.22 L80.6 1610.22 L80.6 1613.66 L74.4 1613.66 L74.4 1610.22 ZM82.67 1610.22 L88.87 1610.22
						 L88.87 1613.66 L82.67 1613.66 L82.67 1610.22 ZM90.94 1610.22 L97.14 1610.22 L97.14 1613.66 L90.94 1613.66
						 L90.94 1610.22 ZM99.2 1610.22 L105.4 1610.22 L105.4 1613.66 L99.2 1613.66 L99.2 1610.22 ZM107.47 1610.22
						 L113.67 1610.22 L113.67 1613.66 L107.47 1613.66 L107.47 1610.22 ZM115.74 1610.22 L121.94 1610.22 L121.94
						 1613.66 L115.74 1613.66 L115.74 1610.22 ZM124 1610.22 L130.21 1610.22 L130.21 1613.66 L124 1613.66 L124
						 1610.22 ZM132.27 1610.22 L138.47 1610.22 L138.47 1613.66 L132.27 1613.66 L132.27 1610.22 ZM140.54 1610.22
						 L146.74 1610.22 L146.74 1613.66 L140.54 1613.66 L140.54 1610.22 ZM148.81 1610.22 L151.66 1610.22 L151.66
						 1613.66 L148.81 1613.66 L148.81 1610.22 ZM149.6 1601.63 L162 1611.94 L149.6 1622.25 L149.6 1601.63 Z"
					class="st16"/>
		</g>
		<g id="group217-206" transform="translate(1182.13,-1198.81)" v:mID="217" v:groupContext="group">
			<title>Icon-compute-29</title>
			<g id="group218-207" v:mID="218" v:groupContext="group">
				<title>Sheet.218</title>
				<g id="shape219-208" v:mID="219" v:groupContext="shape" transform="translate(1169.56,2700.46) rotate(134.919)">
					<title>Sheet.219</title>
					<path d="M12.61 1585.27 L17.03 1585.27 A1.42115 1.42115 0 0 1 18.45 1586.69 L18.45 1619.41 A2.83697 2.83697 0
								 0 1 15.62 1622.25 L11.18 1622.25 L11.18 1586.68 A1.42115 1.42115 0 0 1 12.6 1585.26 L12.61 1585.27
								 Z" class="st28"/>
				</g>
				<g id="shape220-210" v:mID="220" v:groupContext="shape" transform="translate(1145.48,411.536) rotate(44.919)">
					<title>Sheet.220</title>
					<path d="M12.38 1585.79 L16.81 1585.79 A1.42115 1.42115 0 0 1 18.23 1587.21 L18.23 1622.25 L13.79 1622.25 A2.83697
								 2.83697 0 0 1 10.95 1619.41 L10.95 1587.2 A1.42115 1.42115 0 0 1 12.38 1585.79 Z" class="st33"/>
				</g>
			</g>
			<g id="group221-212" transform="translate(19.3201,-28.0758)" v:mID="221" v:groupContext="group">
				<title>Sheet.221</title>
				<g id="shape222-213" v:mID="222" v:groupContext="shape" transform="translate(1148.72,416.857) rotate(45.081)">
					<title>Sheet.222</title>
					<path d="M77.34 1585.27 L81.77 1585.27 A2.83697 2.83697 0 0 1 84.61 1588.11 L84.61 1620.83 A1.42115 1.42115 0
								 0 1 83.19 1622.25 L78.78 1622.25 A1.42115 1.42115 0 0 1 77.35 1620.83 L77.35 1585.27 L77.34 1585.27
								 Z" class="st28"/>
				</g>
				<g id="shape223-215" v:mID="223" v:groupContext="shape" transform="translate(1260.63,2664.19) rotate(135.081)">
					<title>Sheet.223</title>
					<path d="M80.41 1585.79 L84.85 1585.79 L84.85 1620.83 A1.42115 1.42115 0 0 1 83.43 1622.25 L78.99 1622.25 A1.42115
								 1.42115 0 0 1 77.57 1620.83 L77.57 1588.62 A2.83697 2.83697 0 0 1 80.41 1585.78 L80.41 1585.79 Z"
							class="st33"/>
				</g>
			</g>
			<g id="shape224-217" v:mID="224" v:groupContext="shape" transform="translate(33.4784,-9.964)">
				<title>Sheet.224</title>
				<path d="M20.17 1582.93 L1.06 1582.93 A1.02727 1.02727 0 0 1 0 1581.96 a0.883559 0.883559 0 0 1 0.0958076 -0.399198
							 L23 1536.25 A1.09646 1.09646 0 0 1 23.99 1535.68 L46.58 1535.68 A1.02727 1.02727 0 0 1 47.65 1536.65
							 a0.878236 0.878236 0 0 1 -0.186292 0.532264 L20.57 1572.63 L46.8 1572.63 A1.02727 1.02727 0 0 1 47.86
							 1573.6 a0.936785 0.936785 0 0 1 -0.276777 0.649362 L4 1619.59 C3.59 1619.83 0.68 1622.25 2.1 1618.58
							 L20.17 1582.93 Z" class="st34"/>
			</g>
		</g>
		<g id="shape357-221" v:mID="357" v:groupContext="shape" transform="translate(-361.247,726.885) rotate(-90.2)">
			<title>Sheet.357</title>
			<path d="M287.82 1613.65 L277.51 1613.65 L277.51 1610.21 L287.82 1610.21 L287.82 1613.65 ZM274.07 1613.65 L263.76 1613.65
						 L263.76 1610.21 L274.07 1610.21 L274.07 1613.65 ZM260.32 1613.65 L250.01 1613.65 L250.01 1610.21 L260.32
						 1610.21 L260.32 1613.65 ZM246.57 1613.65 L236.26 1613.65 L236.26 1610.21 L246.57 1610.21 L246.57 1613.65
						 ZM232.82 1613.65 L222.51 1613.65 L222.51 1610.21 L232.82 1610.21 L232.82 1613.65 ZM219.07 1613.65 L208.76
						 1613.65 L208.76 1610.21 L219.07 1610.21 L219.07 1613.65 ZM205.32 1613.65 L195.01 1613.65 L195.01 1610.21
						 L205.32 1610.21 L205.32 1613.65 ZM191.57 1613.65 L181.26 1613.65 L181.26 1610.21 L191.57 1610.21 L191.57
						 1613.65 ZM177.82 1613.65 L167.51 1613.65 L167.51 1610.21 L177.82 1610.21 L177.82 1613.65 ZM164.07 1613.65
						 L153.76 1613.65 L153.76 1610.21 L164.07 1610.21 L164.07 1613.65 ZM150.32 1613.65 L140.01 1613.65 L140.01
						 1610.21 L150.32 1610.21 L150.32 1613.65 ZM136.57 1613.65 L126.26 1613.65 L126.26 1610.21 L136.57 1610.21
						 L136.57 1613.65 ZM122.82 1613.65 L112.51 1613.65 L112.51 1610.21 L122.82 1610.21 L122.82 1613.65 ZM109.07
						 1613.65 L98.76 1613.65 L98.76 1610.21 L109.07 1610.21 L109.07 1613.65 ZM95.32 1613.65 L85.01 1613.65 L85.01
						 1610.21 L95.32 1610.21 L95.32 1613.65 ZM81.57 1613.65 L71.26 1613.65 L71.26 1610.21 L81.57 1610.21 L81.57
						 1613.65 ZM67.82 1613.65 L57.51 1613.65 L57.51 1610.21 L67.82 1610.21 L67.82 1613.65 ZM54.07 1613.65 L43.76
						 1613.65 L43.76 1610.21 L54.07 1610.21 L54.07 1613.65 ZM40.32 1613.65 L30.01 1613.65 L30.01 1610.21 L40.32
						 1610.21 L40.32 1613.65 ZM26.57 1613.65 L16.26 1613.65 L16.26 1610.21 L26.57 1610.21 L26.57 1613.65 ZM12.82
						 1613.65 L2.51 1613.65 L2.51 1610.21 L12.82 1610.21 L12.82 1613.65 ZM0 1609.29 L0 1598.98 L3.43 1598.98 L3.43
						 1609.29 L0 1609.29 ZM0 1595.54 L0 1585.23 L3.43 1585.23 L3.43 1595.54 L0 1595.54 ZM0 1581.79 L0 1571.48
						 L3.43 1571.48 L3.43 1581.79 L0 1581.79 ZM0 1568.04 L0 1557.73 L3.43 1557.73 L3.43 1568.04 L0 1568.04 ZM0
						 1554.29 L0 1543.98 L3.43 1543.98 L3.43 1554.29 L0 1554.29 ZM0 1540.54 L0 1530.23 L3.43 1530.23 L3.43 1540.54
						 L0 1540.54 ZM0 1526.79 L0 1516.48 L3.43 1516.48 L3.43 1526.79 L0 1526.79 ZM0 1513.04 L0 1502.73 L3.43 1502.73
						 L3.43 1513.04 L0 1513.04 ZM0 1499.29 L0 1488.98 L3.43 1488.98 L3.43 1499.29 L0 1499.29 ZM0 1485.54 L0 1475.23
						 L3.43 1475.23 L3.43 1485.54 L0 1485.54 ZM0 1471.79 L0 1461.48 L3.43 1461.48 L3.43 1471.79 L0 1471.79 ZM0
						 1458.04 L0 1447.73 L3.43 1447.73 L3.43 1458.04 L0 1458.04 ZM0 1444.29 L0 1433.98 L3.43 1433.98 L3.43 1444.29
						 L0 1444.29 ZM0 1430.54 L0 1420.23 L3.43 1420.23 L3.43 1430.54 L0 1430.54 ZM0 1416.79 L0 1406.48 L3.43 1406.48
						 L3.43 1416.79 L0 1416.79 ZM0 1403.04 L0 1392.73 L3.43 1392.73 L3.43 1403.04 L0 1403.04 ZM0 1389.29 L0 1378.98
						 L3.43 1378.98 L3.43 1389.29 L0 1389.29 ZM0 1375.54 L0 1365.23 L3.43 1365.23 L3.43 1375.54 L0 1375.54 ZM0
						 1361.79 L0 1351.48 L3.43 1351.48 L3.43 1361.79 L0 1361.79 ZM0 1348.04 L0 1342.4 L3.43 1342.4 L3.43 1348.04
						 L0 1348.04 ZM284.38 1601.63 L305.01 1611.94 L284.38 1622.25 L284.38 1601.63 Z" class="st16"/>
		</g>
		<g id="group358-223" transform="translate(1446.7,-1152)" v:mID="358" v:groupContext="group">
			<title>Sheet.358</title>
			<g id="shape131-224" v:mID="131" v:groupContext="shape">
				<title>Sheet.131</title>
				<path d="M0 1593.75 C0 1578.01 12.93 1565.25 28.87 1565.25 C44.82 1565.25 57.75 1578.01 57.75 1593.75 C57.75 1609.49
							 44.82 1622.25 28.87 1622.25 C12.93 1622.25 0 1609.49 0 1593.75 Z" class="st20"/>
			</g>
			<g id="shape132-226" v:mID="132" v:groupContext="shape" transform="translate(17.355,-3)">
				<title>Sheet.132</title>
				<desc>5</desc>
				<v:textBlock v:margins="rect(0,0,0,0)"/>
				<v:textRect cx="20.625" cy="1597.5" width="41.26" height="49.5"/>
				<rect x="0" y="1572.75" width="41.25" height="49.5" class="st1"/>
				<text x="0" y="1609.88" class="st21" v:langID="3081"><v:paragraph/><v:tabList/>5</text>			</g>
		</g>
		<g id="group359-229" transform="translate(1548,-1383)" v:mID="359" v:groupContext="group">
			<title>Sheet.359</title>
			<g id="shape70-230" v:mID="70" v:groupContext="shape">
				<title>Sheet.70</title>
				<path d="M0 1593.75 C0 1578.01 12.93 1565.25 28.87 1565.25 C44.82 1565.25 57.75 1578.01 57.75 1593.75 C57.75 1609.49
							 44.82 1622.25 28.87 1622.25 C12.93 1622.25 0 1609.49 0 1593.75 Z" class="st20"/>
			</g>
			<g id="shape71-232" v:mID="71" v:groupContext="shape" transform="translate(17.2875,-3)">
				<title>Sheet.71</title>
				<desc>4</desc>
				<v:textBlock v:margins="rect(0,0,0,0)"/>
				<v:textRect cx="20.625" cy="1597.5" width="41.26" height="49.5"/>
				<rect x="0" y="1572.75" width="41.25" height="49.5" class="st1"/>
				<text x="-0" y="1609.88" class="st21" v:langID="3081"><v:paragraph/><v:tabList/>4</text>			</g>
		</g>
		<g id="shape360-235" v:mID="360" v:groupContext="shape" transform="translate(1602,1974.19) rotate(180)">
			<title>Sheet.360</title>
			<path d="M17.19 1610.22 L27.5 1610.22 L27.5 1613.66 L17.19 1613.66 L17.19 1610.22 ZM30.94 1610.22 L41.25 1610.22 L41.25
						 1613.66 L30.94 1613.66 L30.94 1610.22 ZM44.68 1610.22 L55 1610.22 L55 1613.66 L44.68 1613.66 L44.68 1610.22
						 ZM58.44 1610.22 L68.75 1610.22 L68.75 1613.66 L58.44 1613.66 L58.44 1610.22 ZM72.19 1610.22 L82.5 1610.22
						 L82.5 1613.66 L72.19 1613.66 L72.19 1610.22 ZM85.94 1610.22 L96.25 1610.22 L96.25 1613.66 L85.94 1613.66
						 L85.94 1610.22 ZM99.69 1610.22 L110 1610.22 L110 1613.66 L99.69 1613.66 L99.69 1610.22 ZM113.44 1610.22
						 L123.75 1610.22 L123.75 1613.66 L113.44 1613.66 L113.44 1610.22 ZM127.19 1610.22 L137.5 1610.22 L137.5 1613.66
						 L127.19 1613.66 L127.19 1610.22 ZM140.94 1610.22 L151.25 1610.22 L151.25 1613.66 L140.94 1613.66 L140.94
						 1610.22 ZM154.69 1610.22 L165 1610.22 L165 1613.66 L154.69 1613.66 L154.69 1610.22 ZM168.44 1610.22 L178.75
						 1610.22 L178.75 1613.66 L168.44 1613.66 L168.44 1610.22 ZM182.19 1610.22 L192.5 1610.22 L192.5 1613.66 L182.19
						 1613.66 L182.19 1610.22 ZM195.94 1610.22 L206.25 1610.22 L206.25 1613.66 L195.94 1613.66 L195.94 1610.22
						 ZM209.69 1610.22 L220 1610.22 L220 1613.66 L209.69 1613.66 L209.69 1610.22 ZM223.44 1610.22 L233.75 1610.22
						 L233.75 1613.66 L223.44 1613.66 L223.44 1610.22 ZM237.19 1610.22 L247.5 1610.22 L247.5 1613.66 L237.19 1613.66
						 L237.19 1610.22 ZM250.94 1610.22 L261.25 1610.22 L261.25 1613.66 L250.94 1613.66 L250.94 1610.22 ZM264.69
						 1610.22 L270.95 1610.22 L270.95 1613.66 L264.69 1613.66 L264.69 1610.22 ZM20.62 1622.25 L0 1611.94 L20.62
						 1601.63 L20.62 1622.25 Z" class="st16"/>
		</g>
		<g id="group361-237" transform="translate(1602,-1476)" v:mID="361" v:groupContext="group">
			<title>Sheet.361</title>
			<g id="shape362-238" v:mID="362" v:groupContext="shape">
				<title>Sheet.362</title>
				<path d="M1.6 1557.92 C0.72 1557.92 0 1557.22 0 1556.36 L0 1545.91 C0 1545.04 0.72 1544.34 1.6 1544.34 L11.63 1544.34
							 C12.51 1544.34 13.23 1545.04 13.23 1545.91 C13.23 1546.77 12.51 1547.47 11.63 1547.47 L3.2 1547.47 L3.2
							 1556.35 C3.2 1557.21 2.49 1557.92 1.61 1557.92 C1.61 1557.92 1.61 1557.92 1.6 1557.92 L1.6 1557.92 ZM79.63
							 1556.36 L79.63 1545.91 C79.63 1545.04 78.91 1544.34 78.02 1544.34 L68 1544.34 C67.12 1544.34 66.4 1545.04
							 66.4 1545.91 C66.4 1546.77 67.12 1547.47 68 1547.47 L76.42 1547.47 L76.42 1556.35 C76.42 1557.21 77.14
							 1557.92 78.02 1557.92 C78.91 1557.92 79.62 1557.21 79.63 1556.35 L79.63 1556.36 ZM13.23 1620.68 C13.23
							 1619.82 12.51 1619.12 11.63 1619.12 L3.2 1619.12 L3.2 1610.24 C3.2 1609.37 2.49 1608.67 1.6 1608.67
							 C0.72 1608.67 0 1609.37 0 1610.24 L0 1620.69 C0 1621.55 0.72 1622.25 1.6 1622.25 L11.63 1622.25 C12.51
							 1622.25 13.23 1621.54 13.23 1620.68 ZM79.63 1620.69 L79.63 1610.24 C79.63 1609.37 78.91 1608.67 78.02
							 1608.67 C77.14 1608.67 76.43 1609.37 76.42 1610.24 L76.42 1619.12 L68 1619.12 C67.12 1619.12 66.4 1619.82
							 66.4 1620.69 C66.4 1621.55 67.12 1622.25 68 1622.25 L78.02 1622.25 C78.9 1622.25 79.62 1621.55 79.63
							 1620.69 L79.63 1620.69 Z" class="st35"/>
			</g>
			<g id="group363-240" transform="translate(9.42229,-10.1447)" v:mID="363" v:groupContext="group">
				<title>Sheet.363</title>
				<g id="shape364-241" v:mID="364" v:groupContext="shape">
					<title>Sheet.364</title>
					<path d="M51.91 1589.31 C51.91 1605.86 31.44 1619.21 26.99 1621.96 C26.46 1622.25 25.82 1622.25 25.29 1621.96
								 C20.54 1618.99 0 1605.64 0 1589.31 L0 1569.14 C0 1568.29 0.69 1567.58 1.56 1567.54 C17.5 1567.11
								 13.87 1560.29 25.81 1560.29 C37.75 1560.29 34.04 1567.11 49.98 1567.54 C50.85 1567.58 51.54 1568.29
								 51.54 1569.14 L51.91 1589.31 L51.91 1589.31 Z" class="st36"/>
				</g>
				<g id="shape365-243" v:mID="365" v:groupContext="shape" transform="translate(3.16731,-3.43637)">
					<title>Sheet.365</title>
					<path d="M22.98 1622.25 C2.26 1608.99 0 1597.23 0 1592.75 L0 1574.02 C8.29 1573.56 11.61 1571.26 14.31 1569.4
								 C16.48 1567.9 18.04 1566.83 22.64 1566.83 C27.23 1566.83 28.77 1567.9 30.92 1569.39 C33.6 1571.26
								 36.91 1573.56 45.23 1574.02 L45.57 1592.8 C45.57 1596.34 43.93 1608.96 22.97 1622.25 L22.98 1622.25
								 Z" class="st37"/>
				</g>
			</g>
			<g id="group366-247" transform="translate(18.212,-31.7107)" v:mID="366" v:groupContext="group">
				<title>Sheet.366</title>
				<g id="shape367-248" v:mID="367" v:groupContext="shape" transform="translate(17.8625,-24.4744)">
					<title>Sheet.367</title>
					<path d="M0 1621.64 a0.623744 0.610252 -180 0 0 0.623729 0.610238 L15.84 1622.25 a0.623744 0.610252 -180 0 0
								 0.623729 -0.610238 L16.46 1619.87 a0.623744 0.610252 -180 0 0 -0.623729 -0.610238 L0.62 1619.26
								 a0.623744 0.610252 -180 0 0 -0.623729 0.610238 L0 1621.64 Z" class="st38"/>
				</g>
				<g id="shape368-250" v:mID="368" v:groupContext="shape" transform="translate(17.8625,-18.3547)">
					<title>Sheet.368</title>
					<path d="M0 1621.64 a0.623744 0.610252 -180 0 0 0.623729 0.610238 L15.84 1622.25 a0.623744 0.610252 -180 0 0
								 0.623729 -0.610238 L16.46 1619.87 a0.623744 0.610252 -180 0 0 -0.623729 -0.610238 L0.62 1619.26
								 a0.623744 0.610252 -180 0 0 -0.623729 0.610238 L0 1621.64 Z" class="st8"/>
				</g>
				<g id="shape369-252" v:mID="369" v:groupContext="shape">
					<title>Sheet.369</title>
					<path d="M0 1621.64 a0.623744 0.610252 -180 0 0 0.623729 0.610238 L19.16 1622.25 a0.623744 0.610252 -180 0 0
								 0.623729 -0.610238 L19.78 1619.87 a0.623744 0.610252 -180 0 0 -0.623729 -0.610238 L0.62 1619.26
								 a0.623744 0.610252 -180 0 0 -0.623729 0.610238 L0 1621.64 Z" class="st39"/>
				</g>
				<g id="shape370-254" v:mID="370" v:groupContext="shape" transform="translate(0,-6.11536)">
					<title>Sheet.370</title>
					<path d="M-0 1621.64 a0.623744 0.610252 -180 0 0 0.623729 0.610238 L33.7 1622.25 a0.623744 0.610252 -180 0 0
								 0.623729 -0.610238 L34.33 1619.87 a0.623744 0.610252 -180 0 0 -0.623729 -0.610238 L0.62 1619.26
								 a0.623744 0.610252 -180 0 0 -0.623729 0.610238 L0 1621.64 Z" class="st40"/>
				</g>
				<g id="shape371-256" v:mID="371" v:groupContext="shape" transform="translate(1.73861E-13,-12.2351)">
					<title>Sheet.371</title>
					<path d="M0 1621.64 a0.61932 0.605924 -180 0 0 0.619306 0.60591 L30.68 1622.25 a0.61932 0.605924 -180 0 0 0.619306
								 -0.60591 L31.3 1619.87 a0.61932 0.605924 -180 0 0 -0.619306 -0.60591 L0.62 1619.26 a0.61932 0.605924
								 -180 0 0 -0.619306 0.60591 L0 1621.64 Z" class="st41"/>
				</g>
				<g id="shape372-258" v:mID="372" v:groupContext="shape" transform="translate(0,-18.3547)">
					<title>Sheet.372</title>
					<path d="M0.52 1613.14 L15.04 1613.14 C15.33 1613.14 15.56 1613.34 15.56 1613.58 L15.56 1621.81 C15.56 1622.06
								 15.33 1622.25 15.04 1622.25 L0.52 1622.25 C0.23 1622.25 0 1622.05 0 1621.81 L0 1613.58 C0 1613.33
								 0.23 1613.14 0.52 1613.14 Z" class="st42"/>
				</g>
			</g>
			<g id="group373-262" transform="translate(39.8435,-5.86867)" v:mID="373" v:groupContext="group">
				<title>Sheet.373</title>
				<g id="shape374-263" v:mID="374" v:groupContext="shape">
					<title>Sheet.374</title>
					<ellipse cx="15.2261" cy="1607.35" rx="15.2261" ry="14.8967" class="st35"/>
				</g>
				<g id="group375-265" transform="translate(5.60914,-8.28365)" v:mID="375" v:groupContext="group">
					<title>Sheet.375</title>
					<g id="shape376-266" v:mID="376" v:groupContext="shape" transform="translate(-9.69225E-14,-0.0216396)">
						<title>Sheet.376</title>
						<path d="M8.06 1620.65 L6.66 1622.02 C6.42 1622.25 6.03 1622.25 5.79 1622.02 L0.24 1616.58 C0 1616.35 0 1615.97
									 0.24 1615.74 L1.21 1614.79 C1.45 1614.55 1.83 1614.55 2.07 1614.79 L8.06 1620.64 L8.06 1620.65
									 Z" class="st27"/>
					</g>
					<g id="shape377-268" v:mID="377" v:groupContext="shape" transform="translate(4.42361,0)">
						<title>Sheet.377</title>
						<path d="M1.4 1622.01 L0 1620.64 L12.78 1608.15 C13.01 1607.91 13.4 1607.91 13.64 1608.15 L14.61 1609.09
									 C14.85 1609.33 14.85 1609.7 14.61 1609.94 L2.26 1622.02 C2.02 1622.25 1.64 1622.25 1.4 1622.02
									 L1.4 1622.01 Z" class="st43"/>
					</g>
				</g>
			</g>
		</g>
		<g id="shape378-270" v:mID="378" v:groupContext="shape" transform="translate(1648.31,-1303.5) scale(-1,1)">
			<title>Sheet.378</title>
			<path d="M12.03 1474.44 L12.03 1484.75 L8.59 1484.75 L8.59 1474.44 L12.03 1474.44 ZM12.03 1488.19 L12.03 1498.5 L8.59
						 1498.5 L8.59 1488.19 L12.03 1488.19 ZM12.03 1501.94 L12.03 1512.25 L8.59 1512.25 L8.59 1501.94 L12.03 1501.94
						 ZM12.03 1515.69 L12.03 1526 L8.59 1526 L8.59 1515.69 L12.03 1515.69 ZM12.03 1529.44 L12.03 1539.75 L8.59
						 1539.75 L8.59 1529.44 L12.03 1529.44 ZM12.03 1543.19 L12.03 1553.5 L8.59 1553.5 L8.59 1543.19 L12.03 1543.19
						 ZM12.03 1556.94 L12.03 1567.25 L8.59 1567.25 L8.59 1556.94 L12.03 1556.94 ZM12.03 1570.69 L12.03 1581 L8.59
						 1581 L8.59 1570.69 L12.03 1570.69 ZM12.03 1584.44 L12.03 1594.75 L8.59 1594.75 L8.59 1584.44 L12.03 1584.44
						 ZM12.03 1598.19 L12.03 1608.5 L8.59 1608.5 L8.59 1598.19 L12.03 1598.19 ZM12.03 1611.94 L12.03 1622.25 L8.59
						 1622.25 L8.59 1611.94 L12.03 1611.94 ZM0 1477.88 L10.31 1457.25 L20.63 1477.88 L0 1477.88 Z" class="st16"/>
		</g>
		<g id="shape379-272" v:mID="379" v:groupContext="shape" transform="translate(1653.37,1776) scale(1,-1)">
			<title>Sheet.379</title>
			<path d="M12.03 1474.44 L12.03 1484.75 L8.59 1484.75 L8.59 1474.44 L12.03 1474.44 ZM12.03 1488.19 L12.03 1498.5 L8.59
						 1498.5 L8.59 1488.19 L12.03 1488.19 ZM12.03 1501.94 L12.03 1512.25 L8.59 1512.25 L8.59 1501.94 L12.03 1501.94
						 ZM12.03 1515.69 L12.03 1526 L8.59 1526 L8.59 1515.69 L12.03 1515.69 ZM12.03 1529.44 L12.03 1539.75 L8.59
						 1539.75 L8.59 1529.44 L12.03 1529.44 ZM12.03 1543.19 L12.03 1553.5 L8.59 1553.5 L8.59 1543.19 L12.03 1543.19
						 ZM12.03 1556.94 L12.03 1567.25 L8.59 1567.25 L8.59 1556.94 L12.03 1556.94 ZM12.03 1570.69 L12.03 1581 L8.59
						 1581 L8.59 1570.69 L12.03 1570.69 ZM12.03 1584.44 L12.03 1594.75 L8.59 1594.75 L8.59 1584.44 L12.03 1584.44
						 ZM12.03 1598.19 L12.03 1608.5 L8.59 1608.5 L8.59 1598.19 L12.03 1598.19 ZM12.03 1611.94 L12.03 1622.25 L8.59
						 1622.25 L8.59 1611.94 L12.03 1611.94 ZM0 1477.88 L10.31 1457.25 L20.63 1477.88 L0 1477.88 Z" class="st16"/>
		</g>
		<g id="group380-274" transform="translate(1435.31,-900)" v:mID="380" v:groupContext="group">
			<title>Sheet.380</title>
			<g id="shape133-275" v:mID="133" v:groupContext="shape">
				<title>Sheet.133</title>
				<path d="M0 1593.75 C0 1578.01 12.93 1565.25 28.87 1565.25 C44.82 1565.25 57.75 1578.01 57.75 1593.75 C57.75 1609.49
							 44.82 1622.25 28.87 1622.25 C12.93 1622.25 0 1609.49 0 1593.75 Z" class="st20"/>
			</g>
			<g id="shape134-277" v:mID="134" v:groupContext="shape" transform="translate(17.445,-3)">
				<title>Sheet.134</title>
				<desc>6</desc>
				<v:textBlock v:margins="rect(0,0,0,0)"/>
				<v:textRect cx="20.625" cy="1597.5" width="41.26" height="49.5"/>
				<rect x="0" y="1572.75" width="41.25" height="49.5" class="st1"/>
				<text x="0" y="1609.88" class="st21" v:langID="3081"><v:paragraph/><v:tabList/>6</text>			</g>
		</g>
		<g id="shape382-280" v:mID="382" v:groupContext="shape" transform="translate(1959.37,2110.5) scale(1,-1)">
			<title>Sheet.382</title>
			<path d="M12.03 1403.22 L12.03 1418.5 L8.59 1418.5 L8.59 1403.22 L12.03 1403.22 ZM12.03 1423.59 L12.03 1438.88 L8.59
						 1438.88 L8.59 1423.59 L12.03 1423.59 ZM12.03 1443.97 L12.03 1459.25 L8.59 1459.25 L8.59 1443.97 L12.03 1443.97
						 ZM12.03 1464.34 L12.03 1479.62 L8.59 1479.62 L8.59 1464.34 L12.03 1464.34 ZM12.03 1484.72 L12.03 1500 L8.59
						 1500 L8.59 1484.72 L12.03 1484.72 ZM12.03 1505.09 L12.03 1520.37 L8.59 1520.37 L8.59 1505.09 L12.03 1505.09
						 ZM12.03 1525.47 L12.03 1540.75 L8.59 1540.75 L8.59 1525.47 L12.03 1525.47 ZM12.03 1545.84 L12.03 1561.13
						 L8.59 1561.13 L8.59 1545.84 L12.03 1545.84 ZM12.03 1566.22 L12.03 1581.5 L8.59 1581.5 L8.59 1566.22 L12.03
						 1566.22 ZM12.03 1586.59 L12.03 1601.88 L8.59 1601.88 L8.59 1586.59 L12.03 1586.59 ZM12.03 1606.97 L12.03
						 1622.25 L8.59 1622.25 L8.59 1606.97 L12.03 1606.97 ZM0 1408.31 L10.31 1377.75 L20.63 1408.31 L0 1408.31
						 Z" class="st16"/>
		</g>
		<g id="group384-282" transform="translate(1998,-1077)" v:mID="384" v:groupContext="group">
			<title>Sheet.384</title>
			<g id="shape73-283" v:mID="73" v:groupContext="shape">
				<title>Sheet.73</title>
				<path d="M0 1593.75 C0 1578.01 12.93 1565.25 28.88 1565.25 C44.82 1565.25 57.75 1578.01 57.75 1593.75 C57.75 1609.49
							 44.82 1622.25 28.88 1622.25 C12.93 1622.25 0 1609.49 0 1593.75 Z" class="st44"/>
			</g>
			<g id="shape74-285" v:mID="74" v:groupContext="shape" transform="translate(16.08,-3)">
				<title>Sheet.74</title>
				<desc>A</desc>
				<v:textBlock v:margins="rect(0,0,0,0)"/>
				<v:textRect cx="20.625" cy="1597.5" width="41.26" height="49.5"/>
				<rect x="0" y="1572.75" width="41.25" height="49.5" class="st1"/>
				<text x="-0" y="1609.88" class="st21" v:langID="3081"><v:paragraph/><v:tabList/>A</text>			</g>
		</g>
		<g id="shape385-288" v:mID="385" v:groupContext="shape" transform="translate(2006.53,-1242)">
			<title>Sheet.385</title>
			<path d="M17.19 1610.22 L27.5 1610.22 L27.5 1613.66 L17.19 1613.66 L17.19 1610.22 ZM30.94 1610.22 L41.25 1610.22 L41.25
						 1613.66 L30.94 1613.66 L30.94 1610.22 ZM44.68 1610.22 L55 1610.22 L55 1613.66 L44.68 1613.66 L44.68 1610.22
						 ZM58.44 1610.22 L68.75 1610.22 L68.75 1613.66 L58.44 1613.66 L58.44 1610.22 ZM72.19 1610.22 L82.5 1610.22
						 L82.5 1613.66 L72.19 1613.66 L72.19 1610.22 ZM85.94 1610.22 L96.25 1610.22 L96.25 1613.66 L85.94 1613.66
						 L85.94 1610.22 ZM99.69 1610.22 L110 1610.22 L110 1613.66 L99.69 1613.66 L99.69 1610.22 ZM113.44 1610.22
						 L123.75 1610.22 L123.75 1613.66 L113.44 1613.66 L113.44 1610.22 ZM127.19 1610.22 L137.5 1610.22 L137.5 1613.66
						 L127.19 1613.66 L127.19 1610.22 ZM140.94 1610.22 L151.25 1610.22 L151.25 1613.66 L140.94 1613.66 L140.94
						 1610.22 ZM154.69 1610.22 L165 1610.22 L165 1613.66 L154.69 1613.66 L154.69 1610.22 ZM168.44 1610.22 L178.75
						 1610.22 L178.75 1613.66 L168.44 1613.66 L168.44 1610.22 ZM182.19 1610.22 L192.5 1610.22 L192.5 1613.66 L182.19
						 1613.66 L182.19 1610.22 ZM195.94 1610.22 L206.25 1610.22 L206.25 1613.66 L195.94 1613.66 L195.94 1610.22
						 ZM209.69 1610.22 L220 1610.22 L220 1613.66 L209.69 1613.66 L209.69 1610.22 ZM223.44 1610.22 L233.75 1610.22
						 L233.75 1613.66 L223.44 1613.66 L223.44 1610.22 ZM237.19 1610.22 L247.5 1610.22 L247.5 1613.66 L237.19 1613.66
						 L237.19 1610.22 ZM250.94 1610.22 L261.25 1610.22 L261.25 1613.66 L250.94 1613.66 L250.94 1610.22 ZM264.69
						 1610.22 L270.95 1610.22 L270.95 1613.66 L264.69 1613.66 L264.69 1610.22 ZM20.62 1622.25 L0 1611.94 L20.62
						 1601.63 L20.62 1622.25 Z" class="st16"/>
		</g>
		<g id="group386-290" transform="translate(672.713,-1285.5)" v:mID="386" v:groupContext="group">
			<title>Sheet.386</title>
			<g id="shape63-291" v:mID="63" v:groupContext="shape">
				<title>Sheet.63</title>
				<path d="M0 1593.75 C0 1578.01 12.93 1565.25 28.87 1565.25 C44.82 1565.25 57.75 1578.01 57.75 1593.75 C57.75 1609.49
							 44.82 1622.25 28.87 1622.25 C12.93 1622.25 0 1609.49 0 1593.75 Z" class="st20"/>
			</g>
			<g id="shape64-293" v:mID="64" v:groupContext="shape" transform="translate(17.325,-3)">
				<title>Sheet.64</title>
				<desc>1</desc>
				<v:textBlock v:margins="rect(0,0,0,0)"/>
				<v:textRect cx="20.625" cy="1597.5" width="41.26" height="49.5"/>
				<rect x="0" y="1572.75" width="41.25" height="49.5" class="st1"/>
				<text x="0" y="1609.88" class="st21" v:langID="3081"><v:paragraph/><v:tabList/>1</text>			</g>
		</g>
		<g id="group388-296" transform="translate(659.437,-531)" v:mID="388" v:groupContext="group">
			<title>Sheet.388</title>
			<g id="shape85-297" v:mID="85" v:groupContext="shape" transform="translate(103.125,-9)">
				<title>Sheet.85</title>
				<desc>Event Grid handler is triggered on blob creation.</desc>
				<v:textBlock v:margins="rect(0,0,0,0)"/>
				<v:textRect cx="576" cy="1601.55" width="1152" height="41.4"/>
				<rect x="0" y="1580.85" width="1152" height="41.4" class="st1"/>
				<text x="0" y="1611.9" class="st22" v:langID="3081"><v:paragraph/><v:tabList/>Event Grid handler is triggered on blob creation.</text>			</g>
			<g id="group387-300" v:mID="387" v:groupContext="group">
				<title>Sheet.387</title>
				<g id="shape83-301" v:mID="83" v:groupContext="shape">
					<title>Sheet.83</title>
					<path d="M0 1594.13 C0 1578.59 12.93 1566 28.87 1566 C44.82 1566 57.75 1578.59 57.75 1594.13 C57.75 1609.66 44.82
								 1622.25 28.87 1622.25 C12.93 1622.25 0 1609.66 0 1594.13 Z" class="st20"/>
				</g>
				<g id="shape84-303" v:mID="84" v:groupContext="shape" transform="translate(17.7975,-2.25)">
					<title>Sheet.84</title>
					<desc>2</desc>
					<v:textBlock v:margins="rect(0,0,0,0)"/>
					<v:textRect cx="20.625" cy="1597.5" width="41.26" height="49.5"/>
					<rect x="0" y="1572.75" width="41.25" height="49.5" class="st1"/>
					<text x="0" y="1609.88" class="st21" v:langID="3081"><v:paragraph/><v:tabList/>2</text>				</g>
			</g>
		</g>
		<g id="group389-306" transform="translate(657,-414)" v:mID="389" v:groupContext="group">
			<title>Sheet.389</title>
			<g id="shape88-307" v:mID="88" v:groupContext="shape" transform="translate(-6.79456E-14,-12.225)">
				<title>Sheet.88</title>
				<path d="M0 1593.75 C0 1578.01 12.93 1565.25 28.87 1565.25 C44.82 1565.25 57.75 1578.01 57.75 1593.75 C57.75 1609.49
							 44.82 1622.25 28.87 1622.25 C12.93 1622.25 0 1609.49 0 1593.75 Z" class="st20"/>
			</g>
			<g id="shape89-309" v:mID="89" v:groupContext="shape" transform="translate(17.4375,-15.225)">
				<title>Sheet.89</title>
				<desc>3</desc>
				<v:textBlock v:margins="rect(0,0,0,0)"/>
				<v:textRect cx="20.625" cy="1597.5" width="41.26" height="49.5"/>
				<rect x="0" y="1572.75" width="41.25" height="49.5" class="st1"/>
				<text x="-0" y="1609.88" class="st21" v:langID="3081"><v:paragraph/><v:tabList/>3</text>			</g>
			<g id="shape90-312" v:mID="90" v:groupContext="shape" transform="translate(113.708,-41.25)">
				<title>Sheet.90</title>
				<desc>Azure Function App retrieves image/document</desc>
				<v:textBlock v:margins="rect(0,0,0,0)"/>
				<v:textRect cx="414" cy="1601.55" width="828" height="41.4"/>
				<rect x="0" y="1580.85" width="828" height="41.4" class="st1"/>
				<text x="0" y="1611.9" class="st22" v:langID="3081"><v:paragraph/><v:tabList/>Azure Function App retrieves image/document</text>			</g>
			<g id="shape93-315" v:mID="93" v:groupContext="shape" transform="translate(113.707,0)">
				<title>Sheet.93</title>
				<desc>and invokes Azure OpenAI with prompt instructions</desc>
				<v:textBlock v:margins="rect(0,0,0,0)"/>
				<v:textRect cx="465.75" cy="1601.55" width="931.51" height="41.4"/>
				<rect x="0" y="1580.85" width="931.5" height="41.4" class="st1"/>
				<text x="0" y="1611.9" class="st22" v:langID="3081"><v:paragraph/><v:tabList/>and invokes Azure OpenAI with prompt instructions</text>			</g>
		</g>
		<g id="group390-318" transform="translate(661.125,-324)" v:mID="390" v:groupContext="group">
			<title>Sheet.390</title>
			<g id="shape94-319" v:mID="94" v:groupContext="shape">
				<title>Sheet.94</title>
				<path d="M0 1593.75 C0 1578.01 12.93 1565.25 28.87 1565.25 C44.82 1565.25 57.75 1578.01 57.75 1593.75 C57.75 1609.49
							 44.82 1622.25 28.87 1622.25 C12.93 1622.25 0 1609.49 0 1593.75 Z" class="st20"/>
			</g>
			<g id="shape95-321" v:mID="95" v:groupContext="shape" transform="translate(17.8425,-3)">
				<title>Sheet.95</title>
				<desc>4</desc>
				<v:textBlock v:margins="rect(0,0,0,0)"/>
				<v:textRect cx="20.625" cy="1597.5" width="41.26" height="49.5"/>
				<rect x="0" y="1572.75" width="41.25" height="49.5" class="st1"/>
				<text x="0" y="1609.88" class="st21" v:langID="3081"><v:paragraph/><v:tabList/>4</text>			</g>
			<g id="shape96-324" v:mID="96" v:groupContext="shape" transform="translate(112.875,-11.625)">
				<title>Sheet.96</title>
				<desc>Customizable Content Safety validates both prompts and comple...</desc>
				<v:textBlock v:margins="rect(0,0,0,0)"/>
				<v:textRect cx="576" cy="1601.55" width="1152" height="41.4"/>
				<rect x="0" y="1580.85" width="1152" height="41.4" class="st1"/>
				<text x="0" y="1611.9" class="st22" v:langID="3081"><v:paragraph/><v:tabList/>Customizable Content Safety validates both prompts and completions</text>			</g>
		</g>
		<g id="group391-327" transform="translate(661.125,-216)" v:mID="391" v:groupContext="group">
			<title>Sheet.391</title>
			<g id="shape98-328" v:mID="98" v:groupContext="shape">
				<title>Sheet.98</title>
				<path d="M0 1593.75 C0 1578.01 12.93 1565.25 28.87 1565.25 C44.82 1565.25 57.75 1578.01 57.75 1593.75 C57.75 1609.49
							 44.82 1622.25 28.87 1622.25 C12.93 1622.25 0 1609.49 0 1593.75 Z" class="st20"/>
			</g>
			<g id="shape99-330" v:mID="99" v:groupContext="shape" transform="translate(17.8425,-3)">
				<title>Sheet.99</title>
				<desc>5</desc>
				<v:textBlock v:margins="rect(0,0,0,0)"/>
				<v:textRect cx="20.625" cy="1597.5" width="41.26" height="49.5"/>
				<rect x="0" y="1572.75" width="41.25" height="49.5" class="st1"/>
				<text x="0" y="1609.88" class="st21" v:langID="3081"><v:paragraph/><v:tabList/>5</text>			</g>
			<g id="shape100-333" v:mID="100" v:groupContext="shape" transform="translate(112.875,-5.475)">
				<title>Sheet.100</title>
				<desc>Azure OpenAI returns json-formated response to Azure Function</desc>
				<v:textBlock v:margins="rect(0,0,0,0)"/>
				<v:textRect cx="576" cy="1601.55" width="1152" height="41.4"/>
				<rect x="0" y="1580.85" width="1152" height="41.4" class="st1"/>
				<text x="0" y="1611.9" class="st22" v:langID="3081"><v:paragraph/><v:tabList/>Azure OpenAI returns json-formated response to Azure Function</text>			</g>
		</g>
		<g id="group392-336" transform="translate(659.543,-123)" v:mID="392" v:groupContext="group">
			<title>Sheet.392</title>
			<g id="shape135-337" v:mID="135" v:groupContext="shape">
				<title>Sheet.135</title>
				<path d="M0 1593.75 C0 1578.01 12.93 1565.25 28.87 1565.25 C44.82 1565.25 57.75 1578.01 57.75 1593.75 C57.75 1609.49
							 44.82 1622.25 28.87 1622.25 C12.93 1622.25 0 1609.49 0 1593.75 Z" class="st20"/>
			</g>
			<g id="shape136-339" v:mID="136" v:groupContext="shape" transform="translate(17.8425,-3)">
				<title>Sheet.136</title>
				<desc>6</desc>
				<v:textBlock v:margins="rect(0,0,0,0)"/>
				<v:textRect cx="20.625" cy="1597.5" width="41.26" height="49.5"/>
				<rect x="0" y="1572.75" width="41.25" height="49.5" class="st1"/>
				<text x="-0" y="1609.88" class="st21" v:langID="3081"><v:paragraph/><v:tabList/>6</text>			</g>
			<g id="shape137-342" v:mID="137" v:groupContext="shape" transform="translate(115.957,-5.775)">
				<title>Sheet.137</title>
				<desc>Azure Function App writes to Cosmos DB</desc>
				<v:textBlock v:margins="rect(0,0,0,0)"/>
				<v:textRect cx="431.25" cy="1601.55" width="862.51" height="41.4"/>
				<rect x="0" y="1580.85" width="862.5" height="41.4" class="st1"/>
				<text x="0" y="1611.9" class="st22" v:langID="3081"><v:paragraph/><v:tabList/>Azure Function App writes to Cosmos DB</text>			</g>
		</g>
		<g id="group393-345" transform="translate(659.82,-18)" v:mID="393" v:groupContext="group">
			<title>Sheet.393</title>
			<g id="shape104-346" v:mID="104" v:groupContext="shape" transform="translate(-1.27898E-13,-10.725)">
				<title>Sheet.104</title>
				<path d="M0 1593.75 C0 1578.01 12.93 1565.25 28.87 1565.25 C44.82 1565.25 57.75 1578.01 57.75 1593.75 C57.75 1609.49
							 44.82 1622.25 28.87 1622.25 C12.93 1622.25 0 1609.49 0 1593.75 Z" class="st44"/>
			</g>
			<g id="shape105-348" v:mID="105" v:groupContext="shape" transform="translate(16.4925,-13.725)">
				<title>Sheet.105</title>
				<desc>A</desc>
				<v:textBlock v:margins="rect(0,0,0,0)"/>
				<v:textRect cx="20.625" cy="1597.5" width="41.26" height="49.5"/>
				<rect x="0" y="1572.75" width="41.25" height="49.5" class="st1"/>
				<text x="0" y="1609.88" class="st21" v:langID="3081"><v:paragraph/><v:tabList/>A</text>			</g>
			<g id="shape106-351" v:mID="106" v:groupContext="shape" transform="translate(102.36,-41.25)">
				<title>Sheet.106</title>
				<desc>User submits a business question using</desc>
				<v:textBlock v:margins="rect(0,0,0,0)"/>
				<v:textRect cx="576" cy="1601.55" width="1152" height="41.4"/>
				<rect x="0" y="1580.85" width="1152" height="41.4" class="st1"/>
				<text x="0" y="1611.9" class="st22" v:langID="3081"><v:paragraph/><v:tabList/>User submits a business question using  </text>			</g>
			<g id="shape107-354" v:mID="107" v:groupContext="shape" transform="translate(102.36,0)">
				<title>Sheet.107</title>
				<desc>natural language</desc>
				<v:textBlock v:margins="rect(0,0,0,0)"/>
				<v:textRect cx="276" cy="1601.55" width="552.01" height="41.4"/>
				<rect x="0" y="1580.85" width="552" height="41.4" class="st1"/>
				<text x="0" y="1611.9" class="st22" v:langID="3081"><v:paragraph/><v:tabList/>natural language</text>			</g>
		</g>
	</g>
</svg>
